
<svg
   xmlns:svg="http://www.w3.org/2000/svg"
   xmlns="http://www.w3.org/2000/svg"
   version="1.0"
   width="100"
   height="150"
   id="svg2512">
  <path stroke="black" fill="none" d="m 0 0 l 100 0 l 0 150 l -100 0 z" stroke-width="2" />
<g transform="translate(30,75)">  <g
     id="layer1">
    <g
       id="g3786">
      <path
         d="M -0.33478729,-1.240229 C -3.7784373,0.776371 -7.7252273,3.514171 -12.811757,6.697071 C -19.139867,0.749971 -28.888187,-1.709829 -36.190017,4.109971 C -41.210337,8.115971 -46.490377,17.087071 -42.766647,23.604671 C -40.548287,18.153471 -37.536507,13.209571 -31.146267,14.462371 C -29.410697,14.802471 -24.932227,16.944571 -25.735847,19.532571 C -26.628077,22.410871 -31.730897,21.157171 -33.258687,19.776071 C -30.406817,28.485371 -18.216057,27.797971 -14.993437,18.998871 C -14.178617,16.775471 -15.114647,15.011371 -14.567697,12.940671 C -13.354627,8.335971 -3.1306473,3.411271 0.26919271,1.163471 C 2.5873629,-0.369429 -0.33478729,-1.240229 -0.33478729,-1.240229"
         id="path2538"
         style="fill:#cc0095;fill-opacity:1;fill-rule:nonzero;stroke:none" />
      <path
         d="M -0.33478729,-1.240229 C -3.7784373,0.776371 -7.7252273,3.514171 -12.811757,6.697071 C -19.139867,0.749971 -28.888187,-1.709829 -36.190017,4.109971 C -41.210337,8.115971 -46.490377,17.087071 -42.766647,23.604671 C -40.548287,18.153471 -37.536507,13.209571 -31.146267,14.462371 C -29.410697,14.802471 -24.932227,16.944571 -25.735847,19.532571 C -26.628077,22.410871 -31.730897,21.157171 -33.258687,19.776071 C -30.406817,28.485371 -18.216057,27.797971 -14.993437,18.998871 C -14.178617,16.775471 -15.114647,15.011371 -14.567697,12.940671 C -13.354627,8.335971 -3.1306473,3.411271 0.26919271,1.163471 C 2.5873629,-0.369429 -0.33478729,-1.240229 -0.33478729,-1.240229 z"
         id="path2542"
         style="fill:none;stroke:#000000;stroke-width:1.01852739;stroke-linecap:round;stroke-linejoin:round;stroke-miterlimit:4;stroke-dasharray:none;stroke-opacity:1" />
      <path
         d="M -32.655617,5.109671 C -36.831577,5.016871 -39.856607,10.230771 -40.426977,12.999171 C -38.547797,11.217671 -34.904527,8.609271 -31.851997,8.691771 C -31.375327,7.660071 -31.996627,5.983571 -32.655617,5.109671"
         id="path2546"
         style="fill:#ff00ba;fill-opacity:1;fill-rule:nonzero;stroke:none" />
      <path
         d="M -18.411107,17.715871 C -17.619707,19.436271 -18.600547,21.774771 -19.783057,22.932771 C -17.553507,20.751171 -16.700997,19.699071 -16.396457,16.166771"
         id="path2550"
         style="fill:#a30077;fill-opacity:1;fill-rule:nonzero;stroke:none" />
    </g>
  </g>
</g><g transform="translate(57,110)">  <g
     id="layer1">
    <g
       id="g4517">
      <path
         d="M -7.8636512,-0.44481772 C -8.3586512,4.1089323 -7.2299012,9.4651823 -6.6436512,13.988932 C -6.3199012,16.487682 -4.0274012,22.728932 -5.0074012,24.942682 C -7.1261512,29.727682 -19.601152,28.671432 -24.058652,29.803932 C -24.907402,24.086432 -31.572402,30.551432 -26.334902,32.248932 C -26.348652,31.826432 -26.586152,31.606432 -26.531152,31.152682 C -24.351152,30.100182 -22.053652,30.983932 -20.948652,33.066432 C -23.724902,30.772682 -24.079902,36.412682 -19.794902,36.420182 C -19.979902,36.137682 -20.326152,35.941432 -20.529902,35.562682 C -19.174902,33.495182 -16.564901,34.207682 -15.262401,36.115182 C -15.107401,36.261432 -15.098651,36.255182 -15.241151,36.095182 C -19.379902,35.451432 -17.023651,40.870182 -14.373651,41.221432 C -11.584901,41.588932 -10.726151,37.726432 -9.0936512,36.292682 C -7.2136512,34.636432 -3.4099012,32.810182 -1.0449012,32.198932 C 0.81884882,31.717682 7.3188484,32.863932 6.0013484,29.516432 C 5.3963484,27.981432 0.14384882,27.052682 -0.9449012,25.772682 C -2.4236512,24.037682 -2.5386512,21.665182 -3.0061512,18.565182 C -3.9786512,12.116432 -5.0799012,6.4751823 -5.4236512,0.78268228 L -7.8636512,-0.44481772 z"
         id="path4023"
         style="fill:#cc0095;fill-opacity:1;fill-rule:nonzero;stroke:none" />
      <path
         d="M -7.8636512,-0.44481772 C -8.3586512,4.1089323 -7.2299012,9.4651823 -6.6436512,13.988932 C -6.3199012,16.487682 -4.0274012,22.728932 -5.0074012,24.942682 C -7.1261512,29.727682 -19.601152,28.671432 -24.058652,29.803932 C -24.907402,24.086432 -31.572402,30.551432 -26.334902,32.248932 C -26.348652,31.826432 -26.586152,31.606432 -26.531152,31.152682 C -24.351152,30.100182 -22.053652,30.983932 -20.948652,33.066432 C -23.724902,30.772682 -24.079902,36.412682 -19.794902,36.420182 C -19.979902,36.137682 -20.326152,35.941432 -20.529902,35.562682 C -19.174902,33.495182 -16.564901,34.207682 -15.262401,36.115182 C -15.107401,36.261432 -15.098651,36.255182 -15.241151,36.095182 C -19.379902,35.451432 -17.023651,40.870182 -14.373651,41.221432 C -11.584901,41.588932 -10.726151,37.726432 -9.0936512,36.292682 C -7.2136512,34.636432 -3.4099012,32.810182 -1.0449012,32.198932 C 0.81884882,31.717682 7.3188484,32.863932 6.0013484,29.516432 C 5.3963484,27.981432 0.14384882,27.052682 -0.9449012,25.772682 C -2.4236512,24.037682 -2.5386512,21.665182 -3.0061512,18.565182 C -3.9786512,12.116432 -5.0799012,6.4751823 -5.4236512,0.78268228 L -7.8636512,-0.44481772 z"
         id="path4025"
         style="fill:none;stroke:#000000;stroke-width:1.25;stroke-linecap:round;stroke-linejoin:round;stroke-miterlimit:4;stroke-dasharray:none;stroke-opacity:1" />
      <path
         d="M -12.072651,32.552052 C -10.522651,33.370802 -9.692651,34.667052 -8.4039012,35.699552 C -8.6901512,33.734552 -5.5901512,31.540802 -3.3926512,30.422052 C -5.6439012,31.665802 -12.072651,32.552052 -12.072651,32.552052"
         id="path4027"
         style="fill:#ff00ba;fill-opacity:1;fill-rule:nonzero;stroke:none" />
      <path
         d="M 5.3638484,-1.2065677 C 5.3638484,8.5684323 6.2625984,18.370932 7.3338484,27.782182 C 2.1238488,29.583432 -1.6349012,35.199682 -7.6699012,35.260932 C -8.6861512,35.270932 -9.612401,33.050932 -11.637401,34.077182 C -13.611151,35.073432 -13.328651,36.688432 -12.846151,38.403432 C -12.119901,40.992182 -8.1736512,43.500932 -6.8074012,40.283432 C -10.489901,40.985932 -6.6736512,34.000932 -3.7411512,38.804682 C -6.2011512,40.942182 -3.9449012,43.262182 -1.2699012,42.618432 C -1.6074012,42.347182 -1.9961512,42.032182 -2.3324012,41.757182 C -1.7836512,38.159682 1.5813488,39.729682 2.9800984,42.049682 C 2.2463484,41.549682 2.1513488,41.664682 1.3563488,41.423432 C 0.83759882,45.822182 4.0675984,44.709682 5.4938484,42.975932 C 5.4000984,43.090932 6.2800984,40.525932 6.8875984,39.710932 C 7.7288484,38.587182 8.6675984,38.019682 9.7350984,37.167182 C 13.238848,34.374682 19.623848,33.519682 14.335098,29.492182 C 11.347598,27.215932 10.773848,27.860932 10.153848,23.853432 C 9.7775984,21.422182 9.8388484,18.632182 9.8388484,16.004682 C 9.8388484,10.497182 8.3963484,4.5384323 9.0250984,-0.79781774 L 5.3638484,-1.2065677 z"
         id="path4029"
         style="fill:#cc0095;fill-opacity:1;fill-rule:nonzero;stroke:none" />
      <path
         d="M 5.3638484,-1.2065677 C 5.3638484,8.5684323 6.2625984,18.370932 7.3338484,27.782182 C 2.1238488,29.583432 -1.6349012,35.199682 -7.6699012,35.260932 C -8.6861512,35.270932 -9.612401,33.050932 -11.637401,34.077182 C -13.611151,35.073432 -13.328651,36.688432 -12.846151,38.403432 C -12.119901,40.992182 -8.1736512,43.500932 -6.8074012,40.283432 C -10.489901,40.985932 -6.6736512,34.000932 -3.7411512,38.804682 C -6.2011512,40.942182 -3.9449012,43.262182 -1.2699012,42.618432 C -1.6074012,42.347182 -1.9961512,42.032182 -2.3324012,41.757182 C -1.7836512,38.159682 1.5813488,39.729682 2.9800984,42.049682 C 2.2463484,41.549682 2.1513488,41.664682 1.3563488,41.423432 C 0.83759882,45.822182 4.0675984,44.709682 5.4938484,42.975932 C 5.4000984,43.090932 6.2800984,40.525932 6.8875984,39.710932 C 7.7288484,38.587182 8.6675984,38.019682 9.7350984,37.167182 C 13.238848,34.374682 19.623848,33.519682 14.335098,29.492182 C 11.347598,27.215932 10.773848,27.860932 10.153848,23.853432 C 9.7775984,21.422182 9.8388484,18.632182 9.8388484,16.004682 C 9.8388484,10.497182 8.3963484,4.5384323 9.0250984,-0.79781774 L 5.3638484,-1.2065677 z"
         id="path4031"
         style="fill:none;stroke:#000000;stroke-width:1.25;stroke-linecap:round;stroke-linejoin:round;stroke-miterlimit:4;stroke-dasharray:none;stroke-opacity:1" />
      <path
         d="M 1.6565988,36.541302 C 2.3728484,37.313802 3.1753484,38.086302 4.0640984,38.633802 C 4.6553484,36.763802 7.6440984,34.661302 9.2678484,33.660052 C 7.0478484,34.801302 3.4203484,36.741302 1.4690988,36.487552"
         id="path4033"
         style="fill:#ff00ba;fill-opacity:1;fill-rule:nonzero;stroke:none" />
    </g>
  </g>
</g><g transform="translate(50,65)">  <g
     id="layer1">
    <g
       id="g2715">
      <path
         d="M 26.411889,9.497847 C 47.482429,-18.573403 45.385069,18.817657 45.385069,18.817657 C 40.839379,49.627307 21.646489,49.122237 21.646489,49.122237 L -5.1225614,49.122237 C -16.840841,50.550807 -31.785671,38.003187 -26.213201,14.770717 C -21.646251,-4.2696128 19.795519,-4.8011428 22.988399,13.204727 C 27.666309,39.585197 -3.0023814,15.845987 18.110949,28.919187 C 22.532109,31.656737 26.248429,32.388527 34.778469,22.353187 C 40.849899,15.210327 42.185659,4.0942972 26.411889,9.497847 z"
         id="path2387"
         style="fill:#cc0095;fill-opacity:1;fill-rule:evenodd;stroke:#000000;stroke-width:1px;stroke-linecap:butt;stroke-linejoin:miter;stroke-opacity:1" />
      <path
         d="M 1.8708986,1.5627072 C 26.116999,1.7502572 21.935899,21.100967 21.935899,21.100967 C 21.935899,21.100967 21.453869,5.3794372 1.8708986,1.5627072 z"
         id="path3212"
         style="fill:#ff00ba;fill-opacity:1;fill-rule:evenodd;stroke:none;stroke-width:1px;stroke-linecap:butt;stroke-linejoin:miter;stroke-opacity:1" />
      <path
         d="M 36.805909,1.2705572 C 36.805909,1.2705572 39.868549,-0.41861282 44.414239,15.112487 C 44.414239,15.112487 44.255789,-4.5378128 36.805909,1.2705572 z"
         id="path3214"
         style="fill:#ff00ba;fill-opacity:1;fill-rule:evenodd;stroke:none;stroke-width:1px;stroke-linecap:butt;stroke-linejoin:miter;stroke-opacity:1" />
      <path
         d="M 10.799469,26.057637 C 15.976499,28.077937 19.050149,33.356847 26.513759,30.931367 C 20.074039,34.088087 15.265029,31.913537 10.799469,26.057637 z"
         id="path3216"
         style="fill:#ff00ba;fill-opacity:1;fill-rule:evenodd;stroke:none;stroke-width:1px;stroke-linecap:butt;stroke-linejoin:miter;stroke-opacity:1" />
      <path
         d="M -26.260441,25.029537 C -26.260441,25.029537 -23.446631,45.855867 -2.9594914,47.930017 C -2.9594914,47.930017 -24.283461,51.295947 -26.260441,25.029537 z"
         id="path3218"
         style="fill:#a30077;fill-opacity:1;fill-rule:evenodd;stroke:none;stroke-width:1px;stroke-linecap:butt;stroke-linejoin:miter;stroke-opacity:1" />
    </g>
  </g>
</g><g transform="translate(68,75)">  <g
     id="layer1">
    <g
       id="g3844">
      <path
         d="M 2.872168,-0.89859685 C 5.3304281,4.2739029 10.122998,12.988303 12.732218,17.509903 C 22.343349,18.250703 21.022749,28.263703 14.936558,29.994203 C 15.576368,28.382703 16.405118,25.514603 14.726628,23.714103 C 12.441308,21.267803 8.9493481,24.151003 11.504588,27.570003 C 9.5851581,28.067803 7.5747581,26.255303 7.1588881,22.982303 C 6.8449781,20.509003 9.2472581,19.853203 8.7953981,17.744903 C 8.0356181,14.212903 0.29892798,3.6931029 -1.868422,1.2468029 C -1.868422,1.2468029 -1.018672,-2.6229969 2.872168,-0.89859685"
         id="path2686"
         style="fill:#cc0095;fill-opacity:1;fill-rule:nonzero;stroke:none" />
      <path
         d="M 2.872168,-0.89859685 C 5.3304281,4.2739029 10.122998,12.988303 12.732218,17.509903 C 22.343349,18.250703 21.022749,28.263703 14.936558,29.994203 C 15.576368,28.382703 16.405118,25.514603 14.726628,23.714103 C 12.441308,21.267803 8.9493481,24.151003 11.504588,27.570003 C 9.5851581,28.067803 7.5747581,26.255303 7.1588881,22.982303 C 6.8449781,20.509003 9.2472581,19.853203 8.7953981,17.744903 C 8.0356181,14.212903 0.29892798,3.6931029 -1.868422,1.2468029 C -1.868422,1.2468029 -1.018672,-2.6229969 2.872168,-0.89859685 z"
         id="path2690"
         style="fill:none;stroke:#000000;stroke-width:0.9997015;stroke-linecap:round;stroke-linejoin:round;stroke-miterlimit:4;stroke-dasharray:none;stroke-opacity:1" />
      <path
         d="M 15.616458,21.610303 C 14.535788,19.837903 13.093218,19.434003 11.511688,19.902803 C 13.554078,18.564203 15.425518,19.121003 16.840098,20.647603 L 15.616458,21.610303 z"
         id="path2694"
         style="fill:#ff00ba;fill-opacity:1;fill-rule:nonzero;stroke:none" />
    </g>
  </g>
</g><g transform="translate(50,67)">  <g
     id="layer1">
    <g
       id="g2870">
      <path
         d="M 15.72114,-19.7147 C 17.36265,-29.4803 25.62585,-46.0179 4.68543,-47.2481"
         id="path3289"
         style="fill:none;fill-rule:evenodd;stroke:#000000;stroke-width:1px;stroke-linecap:butt;stroke-linejoin:miter;stroke-opacity:1" />
      <path
         d="M -2.6652,-19.2429 C -1.02369,-29.0085 7.23951,-45.5461 -13.70091,-46.7763"
         id="path3295"
         style="fill:none;fill-rule:evenodd;stroke:#000000;stroke-width:1px;stroke-linecap:butt;stroke-linejoin:miter;stroke-opacity:1" />
      <path
         d="M 5.73966,0.8415 C 5.73966,0.8415 -2.6532,4.9487 -4.61748,1.0201 C -2.23174,-2.7959 -6.54476,-4.5696 -8.54605,-17.1942 C -11.80889,-37.7769 16.39269,-37.9777 16.0968,-22.9084 C 15.89275,-12.7692 6.6938,-4.5209 5.73966,0.8415 z"
         id="path2482"
         style="fill:#cc0095;fill-opacity:1;fill-rule:evenodd;stroke:#000000;stroke-width:1px;stroke-linecap:butt;stroke-linejoin:miter;stroke-opacity:1" />
      <path
         d="M -6.58177,-13.9798 C -7.47462,-7.3727 -13.49848,-5.2974 -12.11748,-3.8013 C -10.69204,-2.2571 3.46641,-7.0802 4.63632,-10.5973 C 5.22514,-12.3675 -5.20738,-15.4235 -6.58177,-13.9798 z"
         id="path3259"
         style="fill:#a30077;fill-opacity:1;fill-rule:evenodd;stroke:#000000;stroke-width:1px;stroke-linecap:butt;stroke-linejoin:miter;stroke-opacity:1" />
      <path
         d="M -7.83177,-14.5156 C -4.79605,-16.6585 6.26178,-12.7765 4.13252,-10.7656 C 0.91823,-7.7299 -11.80186,-5.5548 -14.20448,-7.4378 C -15.21673,-8.2312 -10.25561,-10.4623 -7.83177,-14.5156 z"
         id="path2486"
         style="fill:#cc0095;fill-opacity:1;fill-rule:evenodd;stroke:#000000;stroke-width:1px;stroke-linecap:butt;stroke-linejoin:miter;stroke-opacity:1" />
      <path
         d="M 8.57788,-27.8653 C 10.6775,-23.9361 3.66716,-16.0796 3.66716,-16.0796 C 3.66716,-16.0796 1.31801,-17.4812 -0.73602,-17.3083 C -2.72946,-17.1405 -1.97582,-25.4407 1.06823,-28.8346 C 3.76611,-31.8426 7.38124,-30.1046 8.57788,-27.8653 z"
         id="path3276"
         style="fill:white;fill-opacity:1;fill-rule:evenodd;stroke:#000000;stroke-width:1px;stroke-linecap:butt;stroke-linejoin:miter;stroke-opacity:1" />
      <path
         d="M -2.80605,-27.8653 C -1.52195,-30.7928 -4.18998,-30.901 -5.75248,-29.1599 C -10.20966,-24.1933 -8.4757,-16.7939 -8.4757,-16.7939 C -7.04713,-18.3118 -5.63447,-17.377 -5.43999,-17.5082 C -3.60502,-18.7464 -5.48647,-21.7543 -2.80605,-27.8653 z"
         id="path3278"
         style="fill:white;fill-opacity:1;fill-rule:evenodd;stroke:#000000;stroke-width:1px;stroke-linecap:butt;stroke-linejoin:miter;stroke-opacity:1" />
      <path
         d="M 125.17857,1138.2142 A 1.1607143,2.3214285 0 1 1 122.85714,1138.2142 A 1.1607143,2.3214285 0 1 1 125.17857,1138.2142 z"
         transform="matrix(0.9627389,0.2704325,-0.2704325,0.9627389,190.77181,-1152.0979)"
         id="path3280"
         style="fill:#000000;fill-opacity:1;stroke:#000000;stroke-width:1;stroke-linecap:round;stroke-linejoin:round;stroke-miterlimit:4;stroke-dasharray:none;stroke-opacity:1" />
      <path
         d="M 124.59738,1138.2142 A 0.57952833,2.3214285 0 1 1 123.43832,1138.2142 A 0.57952833,2.3214285 0 1 1 124.59738,1138.2142 z"
         transform="matrix(0.977654,0.2102204,-0.2102204,0.977654,111.71674,-1162.1503)"
         id="path3282"
         style="fill:#000000;fill-opacity:1;stroke:#000000;stroke-width:1;stroke-linecap:round;stroke-linejoin:round;stroke-miterlimit:4;stroke-dasharray:none;stroke-opacity:1" />
      <path
         d="M -3.80159,-4.4368 C -2.08284,-1.4367 -3.48016,1.0633 -3.48016,1.0633 C -1.82391,2.3133 1.27877,1.5945 1.27877,1.5945 C -1.43998,0.8445 -1.60334,-3.6331 -2.30303,-5.1572 C -3.71512,-4.489 -3.86361,-4.6358 -3.80159,-4.4368 z"
         id="path3285"
         style="fill:#a30077;fill-opacity:1;fill-rule:evenodd;stroke:none;stroke-width:1px;stroke-linecap:butt;stroke-linejoin:miter;stroke-opacity:1" />
      <path
         d="M 4.85331,-32.7394 C 4.85331,-32.7394 16.50626,-29.9953 12.35201,-14.1737 C 12.35201,-14.1737 21.95646,-30.0878 4.85331,-32.7394 z"
         id="path3287"
         style="fill:#ff00ba;fill-opacity:1;fill-rule:evenodd;stroke:none;stroke-width:1px;stroke-linecap:butt;stroke-linejoin:miter;stroke-opacity:1" />
      <path
         d="M 108.71767,1109.1025 A 2.2980971,3.4029515 0 1 1 104.12147,1109.1025 A 2.2980971,3.4029515 0 1 1 108.71767,1109.1025 z"
         transform="matrix(8.0281061e-2,-0.9967723,0.9967723,8.0281061e-2,-1109.0903,-29.983)"
         id="path3293"
         style="fill:#000000;fill-opacity:1;stroke:none;stroke-width:1;stroke-linecap:round;stroke-linejoin:round;stroke-miterlimit:4;stroke-dasharray:none;stroke-opacity:1" />
      <path
         d="M 108.71767,1109.1025 A 2.2980971,3.4029515 0 1 1 104.12147,1109.1025 A 2.2980971,3.4029515 0 1 1 108.71767,1109.1025 z"
         transform="matrix(8.0281061e-2,-0.9967723,0.9967723,8.0281061e-2,-1128.7125,-29.6737)"
         id="path3298"
         style="fill:#000000;fill-opacity:1;stroke:none;stroke-width:1;stroke-linecap:round;stroke-linejoin:round;stroke-miterlimit:4;stroke-dasharray:none;stroke-opacity:1" />
    </g>
  </g>
</g></svg>
