<?xml version="1.0" encoding="UTF-8" standalone="no"?>
<!-- Created with Inkscape (http://www.inkscape.org/) -->

<svg
   xmlns:dc="http://purl.org/dc/elements/1.1/"
   xmlns:cc="http://creativecommons.org/ns#"
   xmlns:rdf="http://www.w3.org/1999/02/22-rdf-syntax-ns#"
   xmlns:svg="http://www.w3.org/2000/svg"
   xmlns="http://www.w3.org/2000/svg"
   xmlns:xlink="http://www.w3.org/1999/xlink"
   xmlns:sodipodi="http://sodipodi.sourceforge.net/DTD/sodipodi-0.dtd"
   xmlns:inkscape="http://www.inkscape.org/namespaces/inkscape"
   width="473.18347"
   height="85.089272"
   id="svg2"
   sodipodi:version="0.32"
   inkscape:version="0.48.1 r9760"
   sodipodi:docname="newdominionlogo.svg"
   inkscape:output_extension="org.inkscape.output.svg.inkscape"
   version="1.0"
   inkscape:export-filename="/Users/davidcase/dev/routes/static/newdominionlogo.png"
   inkscape:export-xdpi="75.988083"
   inkscape:export-ydpi="75.988083">
  <defs
     id="defs4">
    <linearGradient
       id="linearGradient3246">
      <stop
         id="stop3248"
         offset="0"
         style="stop-color:#000000;stop-opacity:1;" />
      <stop
         style="stop-color:#774c00;stop-opacity:1;"
         offset="0.21358471"
         id="stop3252" />
      <stop
         id="stop3254"
         offset="0.55326426"
         style="stop-color:#b37200;stop-opacity:1;" />
      <stop
         id="stop3250"
         offset="1"
         style="stop-color:#efffff;stop-opacity:1;" />
    </linearGradient>
    <linearGradient
       inkscape:collect="always"
       id="linearGradient3230">
      <stop
         style="stop-color:#93d4ff;stop-opacity:1;"
         offset="0"
         id="stop3232" />
      <stop
         style="stop-color:#93d4ff;stop-opacity:0;"
         offset="1"
         id="stop3234" />
    </linearGradient>
    <linearGradient
       id="linearGradient3222">
      <stop
         id="stop3224"
         offset="0"
         style="stop-color:#ffffff;stop-opacity:1;" />
      <stop
         style="stop-color:#ffffff;stop-opacity:0.49803922;"
         offset="1"
         id="stop3228" />
      <stop
         id="stop3226"
         offset="1"
         style="stop-color:#ffffff;stop-opacity:0;" />
    </linearGradient>
    <linearGradient
       id="linearGradient3191">
      <stop
         style="stop-color:#ffffff;stop-opacity:1;"
         offset="0"
         id="stop3193" />
      <stop
         id="stop3330"
         offset="0.5"
         style="stop-color:#8c95ff;stop-opacity:1;" />
      <stop
         id="stop3210"
         offset="1"
         style="stop-color:#000000;stop-opacity:0;" />
    </linearGradient>
    <linearGradient
       id="linearGradient3157">
      <stop
         style="stop-color:#000000;stop-opacity:1;"
         offset="0"
         id="stop3159" />
      <stop
         style="stop-color:#ef9800;stop-opacity:1"
         offset="1"
         id="stop3161" />
    </linearGradient>
    <inkscape:perspective
       sodipodi:type="inkscape:persp3d"
       inkscape:vp_x="0 : 526.18109 : 1"
       inkscape:vp_y="0 : 1000 : 0"
       inkscape:vp_z="744.09448 : 526.18109 : 1"
       inkscape:persp3d-origin="372.04724 : 350.78739 : 1"
       id="perspective10" />
    <linearGradient
       inkscape:collect="always"
       xlink:href="#linearGradient3157"
       id="linearGradient3163"
       x1="-313.5661"
       y1="163.44576"
       x2="-313.75916"
       y2="233.33208"
       gradientUnits="userSpaceOnUse"
       gradientTransform="translate(50,-16.428571)" />
    <linearGradient
       inkscape:collect="always"
       xlink:href="#linearGradient3157"
       id="linearGradient3251"
       gradientUnits="userSpaceOnUse"
       gradientTransform="translate(50,-16.428571)"
       x1="-313.5661"
       y1="163.44576"
       x2="-313.75916"
       y2="233.33208" />
    <linearGradient
       inkscape:collect="always"
       xlink:href="#linearGradient3157"
       id="linearGradient2501"
       gradientUnits="userSpaceOnUse"
       gradientTransform="matrix(0.2695267,0,0,0.2695267,-710.80356,-470.41957)"
       x1="-313.5661"
       y1="136.26843"
       x2="-313.75916"
       y2="271.01389" />
    <linearGradient
       inkscape:collect="always"
       xlink:href="#linearGradient3157"
       id="linearGradient3287"
       gradientUnits="userSpaceOnUse"
       gradientTransform="matrix(0.2695267,0,0,0.2695267,-710.80356,-470.41957)"
       x1="-313.5661"
       y1="136.26843"
       x2="-313.75916"
       y2="271.01389" />
    <linearGradient
       inkscape:collect="always"
       xlink:href="#linearGradient3157"
       id="linearGradient3306"
       gradientUnits="userSpaceOnUse"
       gradientTransform="matrix(0.2695267,0,0,0.2695267,-710.80356,-470.41957)"
       x1="-313.5661"
       y1="136.26843"
       x2="-313.75916"
       y2="271.01389" />
    <radialGradient
       inkscape:collect="always"
       xlink:href="#linearGradient3191"
       id="radialGradient3347"
       gradientUnits="userSpaceOnUse"
       gradientTransform="matrix(0.817576,8.309264e-3,-2.7021861e-3,0.4972359,-200.08765,50.152202)"
       cx="-1098.0358"
       cy="81.605591"
       fx="-1098.0358"
       fy="81.605591"
       r="96.923882" />
    <radialGradient
       inkscape:collect="always"
       xlink:href="#linearGradient3230"
       id="radialGradient3349"
       gradientUnits="userSpaceOnUse"
       gradientTransform="matrix(0.5778086,-7.9909205e-2,6.2694857e-2,0.2019931,-157.70944,-459.18026)"
       cx="-1125.3101"
       cy="69.815575"
       fx="-1125.3101"
       fy="69.815575"
       r="210.61176" />
    <radialGradient
       inkscape:collect="always"
       xlink:href="#linearGradient3222"
       id="radialGradient3351"
       gradientUnits="userSpaceOnUse"
       gradientTransform="matrix(-1.594428e-6,-0.3501502,0.7266449,-1.9687083e-6,-1171.623,-322.44682)"
       cx="-1120.7643"
       cy="69.988838"
       fx="-1120.7643"
       fy="69.988838"
       r="86.368042" />
    <linearGradient
       inkscape:collect="always"
       xlink:href="#linearGradient3157"
       id="linearGradient3353"
       gradientUnits="userSpaceOnUse"
       gradientTransform="matrix(0.2695267,0,0,0.2695267,-710.80356,-470.41957)"
       x1="-313.5661"
       y1="136.26843"
       x2="-313.75916"
       y2="271.01389" />
    <linearGradient
       inkscape:collect="always"
       xlink:href="#linearGradient3157"
       id="linearGradient3364"
       gradientUnits="userSpaceOnUse"
       gradientTransform="matrix(0.2695267,0,0,0.2695267,-710.80356,-470.41957)"
       x1="-313.5661"
       y1="136.26843"
       x2="-315.29636"
       y2="240.5258" />
    <linearGradient
       inkscape:collect="always"
       xlink:href="#linearGradient3246"
       id="linearGradient3220"
       x1="-803.66089"
       y1="-375.79068"
       x2="-805.48438"
       y2="-313.95193"
       gradientUnits="userSpaceOnUse"
       gradientTransform="translate(-0.6,-0.6)" />
  </defs>
  <sodipodi:namedview
     id="base"
     pagecolor="#000000"
     bordercolor="#666666"
     borderopacity="1.0"
     gridtolerance="10000"
     guidetolerance="10"
     objecttolerance="10"
     inkscape:pageopacity="1"
     inkscape:pageshadow="2"
     inkscape:zoom="1.28"
     inkscape:cx="352.69379"
     inkscape:cy="46.218359"
     inkscape:document-units="px"
     inkscape:current-layer="layer1"
     showgrid="false"
     inkscape:window-width="1137"
     inkscape:window-height="776"
     inkscape:window-x="0"
     inkscape:window-y="0"
     showborder="false"
     inkscape:window-maximized="0">
    <inkscape:grid
       type="xygrid"
       id="grid3021" />
  </sodipodi:namedview>
  <metadata
     id="metadata7">
    <rdf:RDF>
      <cc:Work
         rdf:about="">
        <dc:format>image/svg+xml</dc:format>
        <dc:type
           rdf:resource="http://purl.org/dc/dcmitype/StillImage" />
        <dc:title></dc:title>
      </cc:Work>
    </rdf:RDF>
  </metadata>
  <g
     inkscape:label="Layer 1"
     inkscape:groupmode="layer"
     id="layer1"
     transform="translate(1051.3241,399.77287)">
    <path
       style="font-size:64px;font-style:italic;font-variant:normal;font-weight:normal;font-stretch:normal;fill:#ffffff;fill-opacity:1;stroke:none;font-family:Drosselmeyer;-inkscape-font-specification:Drosselmeyer Italic"
       d="m -1042.835,-368.21075 11.968,0 -5.696,28.48 -8.192,0 -0.512,2.688 14.464,0 c 4.8213,0 8.1706,-1.81333 10.048,-5.44 l 6.144,-30.592 -0.128,-2.304 c -1.1094,-2.04796 -3.0294,-3.07196 -5.76,-3.072 l -23.744,0 -8.256,41.408 3.456,0 6.208,-31.168 m 41.162,22.464 -1.152,5.824 -10.88,0 1.152,-5.824 10.88,0 m -4.8,-8.768 6.65605,0 -1.21595,5.888 -10.5601,0 c -2.9013,1e-5 -4.5867,1.21601 -5.056,3.648 l -0.832,4.032 c -0.512,2.60267 0.832,3.904 4.032,3.904 l 15.74405,0 c 3.88265,0 6.52798,-1.87733 7.936,-5.632 l 3.776,-19.008 c 0.55464,-2.85864 -1.04536,-4.28797 -4.8,-4.288 l -21.69605,0 -2.24,11.456 8.256,0 m 57.98105,-11.136 -12.992,0 -19.584,25.728 5.184,-26.048 -4.48,0 -5.76,28.928 16.064,0 21.568,-28.608 m 2.762,17.024 1.152,-5.76 10.816,0 -1.152,5.76 -10.816,0 m 1.024,8.704 c -1.87734,0 -2.66667,-0.72533 -2.368,-2.176 l 0.704,-3.648 23.552,0 3.008,-14.848 c 0.68264,-3.58397 -0.55469,-5.37597 -3.712,-5.376 l -15.808,0 c -3.88267,3e-5 -6.50667,1.87736 -7.872,5.632 l -3.84,19.008 c -0.55466,2.85867 1.04533,4.288 4.8,4.288 l 21.696,0 0.576,-2.88 -20.736,0 m 44.989,-38.656 -4.096,20.288 -3.584,0 1.792,-8.704 -8.128,0 2.304,-11.584 11.712,0 m 26.356,12.608 c 4.26664,3e-5 6.07997,1.68536 5.44,5.056 l -1.408,6.784 -26.048,0 -1.088,5.504 26.176,0 -1.152,5.888 c -2.00536,3.79733 -5.37602,5.696 -10.112,5.696 l -21.696,0 0.576,-2.88 15.424,0 1.152,-5.824 -15.424,0 2.88,-14.464 c 1.408,-3.19997 3.52,-5.11997 6.336,-5.76 l 18.944,0 m 141.087,-2.304 1.408,-7.232 c 0.42663,-2.04796 -0.85336,-3.07196 -3.84,-3.072 l -17.792,0 c -3.45601,0.38404 -5.504,2.15471 -6.144,5.312 l -6.4,32.192 c -0.55466,2.688 1.04533,4.032 4.8,4.032 l 21.696,0 5.184,-26.048 -17.6,0 -2.048,10.24 4.48,0 -2.56,12.928 -7.616,0 c -1.87734,0 -2.688,-0.64 -2.432,-1.92 l 5.312,-26.432 23.552,0 m 13.976,22.528 -1.152,5.824 -10.88,0 1.152,-5.824 10.88,0 m -4.8,-8.768 6.656,0 -1.216,5.888 -10.56,0 c -2.90133,1e-5 -4.58667,1.21601 -5.056,3.648 l -0.832,4.032 c -0.512,2.60267 0.832,3.904 4.032,3.904 l 15.744,0 c 3.88265,0 6.52798,-1.87733 7.936,-5.632 l 3.776,-19.008 c 0.55464,-2.85864 -1.04536,-4.28797 -4.8,-4.288 l -21.696,0 -2.24,11.456 8.256,0 m 25.277,17.472 4.096,-20.416 -4.928,0 4.224,-21.12 11.84,0 -7.808,38.848 2.752,0 -0.512,2.688 -9.664,0 m 30.898,-8.704 -1.152,5.824 -10.88,0 1.152,-5.824 10.88,0 m -4.8,-8.768 6.656,0 -1.216,5.888 -10.56,0 c -2.90133,1e-5 -4.58667,1.21601 -5.056,3.648 l -0.832,4.032 c -0.512,2.60267 0.832,3.904 4.032,3.904 l 15.744,0 c 3.88265,0 6.52798,-1.87733 7.936,-5.632 l 3.776,-19.008 c 0.55464,-2.85864 -1.04536,-4.28797 -4.8,-4.288 l -21.696,0 -2.24,11.456 8.256,0 m 28.157,-2.752 1.728,-8.704 -3.776,0 -1.984,10.112 c 0.98133,1.83468 2.90133,3.28535 5.76,4.352 -4.43734,0.21335 -7.04,2.19734 -7.808,5.952 l -1.728,8.512 3.648,0 1.728,-8.512 c 0.64,-2.04799 2.15466,-3.07199 4.544,-3.072 l 6.848,0 -2.304,11.584 14.464,0 1.92,-9.6 c 0.42664,-2.21866 -2.17603,-3.88265 -7.808,-4.992 6.14397,-1.40798 9.47197,-3.34932 9.984,-5.824 l 1.664,-8.512 -14.592,0 -2.304,11.584 -5.376,0 c -2.73067,-0.38398 -4.26667,-1.34398 -4.608,-2.88 m 33.753,20.224 c -3.84,-0.0427 -5.39733,-1.87733 -4.672,-5.504 l 4.672,-23.424 3.648,0 -5.12,25.6 7.232,0 5.12,-25.6 18.048,0 -6.336,31.808 c -0.68269,3.49866 -2.51736,5.43999 -5.504,5.824 l -26.752,0 0.576,-2.944 13.056,0 1.152,-5.76 -5.12,0"
       id="text3210"
       inkscape:connector-curvature="0" />
    <path
       sodipodi:type="arc"
       style="opacity:0.63070541;fill:url(#radialGradient3347);fill-opacity:1;stroke:none;stroke-width:10;stroke-linecap:butt;stroke-miterlimit:4;stroke-dasharray:none;stroke-opacity:1"
       id="path3322"
       sodipodi:cx="-1098.0358"
       sodipodi:cy="81.605591"
       sodipodi:rx="91.923882"
       sodipodi:ry="48.192493"
       d="m -1006.1119,81.605591 c 0,26.615979 -41.1557,48.192489 -91.9239,48.192489 -50.7681,0 -91.9238,-21.57651 -91.9238,-48.192489 0,-26.615979 41.1557,-48.192494 91.9238,-48.192494 50.7682,0 91.9239,21.576515 91.9239,48.192494 z"
       transform="matrix(0.9389596,-0.1340311,0.1015279,0.6966153,212.54873,-561.30515)" />
    <g
       id="g3332">
      <path
         sodipodi:nodetypes="ccccccc"
         id="path3320"
         d="M -811.7787,-344.11519 C -842.09898,-332.95667 -879.43405,-326.9918 -879.43405,-326.9918 C -854.99082,-325.59205 -848.82508,-314.6836 -848.82508,-314.6836 C -701.07267,-368.83858 -793.6329,-378.96436 -811.45591,-365.96142 C -811.45591,-365.96142 -799.38671,-375.99636 -758.94751,-379.91853 C -757.59108,-391.79105 -738.32379,-399.77287 -738.32379,-399.77287 C -921.15739,-357.84292 -840.19573,-333.49071 -811.7787,-344.11519 z"
         style="fill:url(#radialGradient3349);fill-opacity:1;fill-rule:evenodd;stroke:none;stroke-width:5;stroke-linecap:butt;stroke-linejoin:miter;stroke-miterlimit:4;stroke-dasharray:none;stroke-opacity:1" />
      <path
         transform="matrix(0.3774079,-0.1090039,0.2177317,0.3358989,-404.17507,-501.53365)"
         d="m -1036.4165,69.988838 c 0,20.920945 -37.7638,37.880722 -84.3478,37.880722 -46.584,0 -84.3477,-16.959777 -84.3477,-37.880722 0,-20.920945 37.7637,-37.880722 84.3477,-37.880722 46.584,0 84.3478,16.959777 84.3478,37.880722 z"
         sodipodi:ry="37.880722"
         sodipodi:rx="84.34774"
         sodipodi:cy="69.988838"
         sodipodi:cx="-1120.7643"
         id="path3324"
         style="fill:url(#radialGradient3351);fill-opacity:1;stroke:none;stroke-width:10;stroke-linecap:butt;stroke-miterlimit:4;stroke-dasharray:none;stroke-opacity:1"
         sodipodi:type="arc" />
    </g>
    <path
       style="font-size:64px;font-style:italic;font-variant:normal;font-weight:normal;font-stretch:normal;fill:url(#linearGradient3220);fill-opacity:1;stroke:none;stroke-width:1px;stroke-linecap:butt;stroke-linejoin:miter;stroke-opacity:1;font-family:Drosselmeyer;-inkscape-font-specification:Drosselmeyer Italic"
       d="M -1040.6905,-366.02271 L -1028.7225,-366.02271 L -1034.4185,-337.54271 L -1042.6105,-337.54271 L -1043.1225,-334.85471 L -1028.6585,-334.85471 C -1023.8372,-334.85471 -1020.4879,-336.66804 -1018.6105,-340.29471 L -1012.4665,-370.88671 L -1012.5945,-373.19071 C -1013.7039,-375.23867 -1015.6239,-376.26266 -1018.3545,-376.26271 L -1042.0985,-376.26271 L -1050.3545,-334.85471 L -1046.8985,-334.85471 L -1040.6905,-366.02271 M -999.52849,-343.55871 L -1000.6805,-337.73471 L -1011.5605,-337.73471 L -1010.4085,-343.55871 L -999.52849,-343.55871 M -1004.3285,-352.32671 L -997.67249,-352.32671 L -998.88849,-346.43871 L -1009.4485,-346.43871 C -1012.3498,-346.43869 -1014.0352,-345.2227 -1014.5045,-342.79071 L -1015.3365,-338.75871 C -1015.8485,-336.15604 -1014.5045,-334.85471 -1011.3045,-334.85471 L -995.56049,-334.85471 C -991.67785,-334.85471 -989.03252,-336.73204 -987.62449,-340.48671 L -983.84849,-359.49471 C -983.29386,-362.35334 -984.89386,-363.78268 -988.64849,-363.78271 L -1010.3445,-363.78271 L -1012.5845,-352.32671 L -1004.3285,-352.32671 M -946.34749,-363.46271 L -959.33949,-363.46271 L -978.92349,-337.73471 L -973.73949,-363.78271 L -978.21949,-363.78271 L -983.97949,-334.85471 L -967.91549,-334.85471 L -946.34749,-363.46271 M -943.58549,-346.43871 L -942.43349,-352.19871 L -931.61749,-352.19871 L -932.76949,-346.43871 L -943.58549,-346.43871 M -942.56149,-337.73471 C -944.43883,-337.7347 -945.22816,-338.46004 -944.92949,-339.91071 L -944.22549,-343.55871 L -920.67349,-343.55871 L -917.66549,-358.40671 C -916.98286,-361.99068 -918.22019,-363.78268 -921.37749,-363.78271 L -937.18549,-363.78271 C -941.06817,-363.78268 -943.69216,-361.90535 -945.05749,-358.15071 L -948.89749,-339.14271 C -949.45216,-336.28404 -947.85216,-334.85471 -944.09749,-334.85471 L -922.40149,-334.85471 L -921.82549,-337.73471 L -942.56149,-337.73471 M -897.57249,-376.39071 L -901.66849,-356.10271 L -905.25249,-356.10271 L -903.46049,-364.80671 L -911.58849,-364.80671 L -909.28449,-376.39071 L -897.57249,-376.39071 M -871.21649,-363.78271 C -866.94986,-363.78268 -865.13653,-362.09735 -865.77649,-358.72671 L -867.18449,-351.94271 L -893.23249,-351.94271 L -894.32049,-346.43871 L -868.14449,-346.43871 L -869.29649,-340.55071 C -871.30186,-336.75337 -874.67252,-334.85471 -879.40849,-334.85471 L -901.10449,-334.85471 L -900.52849,-337.73471 L -885.10449,-337.73471 L -883.95249,-343.55871 L -899.37649,-343.55871 L -896.49649,-358.02271 C -895.0885,-361.22268 -892.9765,-363.14268 -890.16049,-363.78271 L -871.21649,-363.78271 M -730.12949,-366.08671 L -728.72149,-373.31871 C -728.29486,-375.36667 -729.57486,-376.39066 -732.56149,-376.39071 L -750.35349,-376.39071 C -753.8095,-376.00666 -755.8575,-374.236 -756.49749,-371.07871 L -762.89749,-338.88671 C -763.45216,-336.1987 -761.85216,-334.85471 -758.09749,-334.85471 L -736.40149,-334.85471 L -731.21749,-360.90271 L -748.81749,-360.90271 L -750.86549,-350.66271 L -746.38549,-350.66271 L -748.94549,-337.73471 L -756.56149,-337.73471 C -758.43883,-337.7347 -759.2495,-338.3747 -758.99349,-339.65471 L -753.68149,-366.08671 L -730.12949,-366.08671 M -716.15349,-343.55871 L -717.30549,-337.73471 L -728.18549,-337.73471 L -727.03349,-343.55871 L -716.15349,-343.55871 M -720.95349,-352.32671 L -714.29749,-352.32671 L -715.51349,-346.43871 L -726.07349,-346.43871 C -728.97483,-346.43869 -730.66016,-345.2227 -731.12949,-342.79071 L -731.96149,-338.75871 C -732.47349,-336.15604 -731.12949,-334.85471 -727.92949,-334.85471 L -712.18549,-334.85471 C -708.30285,-334.85471 -705.65752,-336.73204 -704.24949,-340.48671 L -700.47349,-359.49471 C -699.91886,-362.35334 -701.51886,-363.78268 -705.27349,-363.78271 L -726.96949,-363.78271 L -729.20949,-352.32671 L -720.95349,-352.32671 M -695.67649,-334.85471 L -691.58049,-355.27071 L -696.50849,-355.27071 L -692.28449,-376.39071 L -680.44449,-376.39071 L -688.25249,-337.54271 L -685.50049,-337.54271 L -686.01249,-334.85471 L -695.67649,-334.85471 M -664.77849,-343.55871 L -665.93049,-337.73471 L -676.81049,-337.73471 L -675.65849,-343.55871 L -664.77849,-343.55871 M -669.57849,-352.32671 L -662.92249,-352.32671 L -664.13849,-346.43871 L -674.69849,-346.43871 C -677.59983,-346.43869 -679.28516,-345.2227 -679.75449,-342.79071 L -680.58649,-338.75871 C -681.09849,-336.15604 -679.75449,-334.85471 -676.55449,-334.85471 L -660.81049,-334.85471 C -656.92785,-334.85471 -654.28252,-336.73204 -652.87449,-340.48671 L -649.09849,-359.49471 C -648.54386,-362.35334 -650.14386,-363.78268 -653.89849,-363.78271 L -675.59449,-363.78271 L -677.83449,-352.32671 L -669.57849,-352.32671 M -641.42149,-355.07871 L -639.69349,-363.78271 L -643.46949,-363.78271 L -645.45349,-353.67071 C -644.47216,-351.83602 -642.55217,-350.38536 -639.69349,-349.31871 C -644.13083,-349.10536 -646.73349,-347.12136 -647.50149,-343.36671 L -649.22949,-334.85471 L -645.58149,-334.85471 L -643.85349,-343.36671 C -643.2135,-345.4147 -641.69883,-346.43869 -639.30949,-346.43871 L -632.46149,-346.43871 L -634.76549,-334.85471 L -620.30149,-334.85471 L -618.38149,-344.45471 C -617.95486,-346.67336 -620.55752,-348.33736 -626.18949,-349.44671 C -620.04552,-350.85469 -616.71752,-352.79602 -616.20549,-355.27071 L -614.54149,-363.78271 L -629.13349,-363.78271 L -631.43749,-352.19871 L -636.81349,-352.19871 C -639.54417,-352.58269 -641.08017,-353.54269 -641.42149,-355.07871 M -607.66849,-334.85471 C -611.5085,-334.89737 -613.06583,-336.73204 -612.34049,-340.35871 L -607.66849,-363.78271 L -604.02049,-363.78271 L -609.14049,-338.18271 L -601.90849,-338.18271 L -596.78849,-363.78271 L -578.74049,-363.78271 L -585.07649,-331.97471 C -585.75919,-328.47605 -587.59385,-326.53471 -590.58049,-326.15071 L -617.33249,-326.15071 L -616.75649,-329.09471 L -603.70049,-329.09471 L -602.54849,-334.85471 L -607.66849,-334.85471"
       id="text3205" />
    <text
       xml:space="preserve"
       style="font-size:40px;font-style:normal;font-weight:normal;fill:#000000;fill-opacity:1;stroke:none;stroke-width:1px;stroke-linecap:butt;stroke-linejoin:miter;stroke-opacity:1;font-family:Bitstream Vera Sans"
       x="676.72327"
       y="11.064032"
       id="text3206"
       transform="translate(-1028.3746,-399.77287)"><tspan
         sodipodi:role="line"
         id="tspan3208"
         x="676.72327"
         y="11.064032" /></text>
  </g>
</svg>
