<?xml version="1.0" encoding="UTF-8" standalone="no"?>
<!-- Created with Inkscape (http://www.inkscape.org/) -->
<svg
   xmlns:dc="http://purl.org/dc/elements/1.1/"
   xmlns:cc="http://creativecommons.org/ns#"
   xmlns:rdf="http://www.w3.org/1999/02/22-rdf-syntax-ns#"
   xmlns:svg="http://www.w3.org/2000/svg"
   xmlns="http://www.w3.org/2000/svg"
   xmlns:xlink="http://www.w3.org/1999/xlink"
   xmlns:sodipodi="http://sodipodi.sourceforge.net/DTD/sodipodi-0.dtd"
   xmlns:inkscape="http://www.inkscape.org/namespaces/inkscape"
   width="473.18347"
   height="85.089272"
   id="svg2"
   sodipodi:version="0.32"
   inkscape:version="0.46"
   sodipodi:docname="newdominionlogo.svg"
   inkscape:output_extension="org.inkscape.output.svg.inkscape"
   version="1.0">
  <defs
     id="defs4">
    <linearGradient
       id="linearGradient3246">
      <stop
         id="stop3248"
         offset="0"
         style="stop-color:#000000;stop-opacity:1;" />
      <stop
         style="stop-color:#774c00;stop-opacity:1;"
         offset="0.21358471"
         id="stop3252" />
      <stop
         id="stop3254"
         offset="0.55326426"
         style="stop-color:#b37200;stop-opacity:1;" />
      <stop
         id="stop3250"
         offset="1"
         style="stop-color:#efffff;stop-opacity:1;" />
    </linearGradient>
    <linearGradient
       inkscape:collect="always"
       id="linearGradient3230">
      <stop
         style="stop-color:#93d4ff;stop-opacity:1;"
         offset="0"
         id="stop3232" />
      <stop
         style="stop-color:#93d4ff;stop-opacity:0;"
         offset="1"
         id="stop3234" />
    </linearGradient>
    <linearGradient
       id="linearGradient3222">
      <stop
         id="stop3224"
         offset="0"
         style="stop-color:#ffffff;stop-opacity:1;" />
      <stop
         style="stop-color:#ffffff;stop-opacity:0.49803922;"
         offset="1"
         id="stop3228" />
      <stop
         id="stop3226"
         offset="1"
         style="stop-color:#ffffff;stop-opacity:0;" />
    </linearGradient>
    <linearGradient
       id="linearGradient3191">
      <stop
         style="stop-color:#ffffff;stop-opacity:1;"
         offset="0"
         id="stop3193" />
      <stop
         id="stop3330"
         offset="0.5"
         style="stop-color:#8c95ff;stop-opacity:1;" />
      <stop
         id="stop3210"
         offset="1"
         style="stop-color:#000000;stop-opacity:0;" />
    </linearGradient>
    <linearGradient
       id="linearGradient3157">
      <stop
         style="stop-color:#000000;stop-opacity:1;"
         offset="0"
         id="stop3159" />
      <stop
         style="stop-color:#ef9800;stop-opacity:1"
         offset="1"
         id="stop3161" />
    </linearGradient>
    <inkscape:perspective
       sodipodi:type="inkscape:persp3d"
       inkscape:vp_x="0 : 526.18109 : 1"
       inkscape:vp_y="0 : 1000 : 0"
       inkscape:vp_z="744.09448 : 526.18109 : 1"
       inkscape:persp3d-origin="372.04724 : 350.78739 : 1"
       id="perspective10" />
    <linearGradient
       inkscape:collect="always"
       xlink:href="#linearGradient3157"
       id="linearGradient3163"
       x1="-313.5661"
       y1="163.44576"
       x2="-313.75916"
       y2="233.33208"
       gradientUnits="userSpaceOnUse"
       gradientTransform="translate(50,-16.428571)" />
    <linearGradient
       inkscape:collect="always"
       xlink:href="#linearGradient3157"
       id="linearGradient3251"
       gradientUnits="userSpaceOnUse"
       gradientTransform="translate(50,-16.428571)"
       x1="-313.5661"
       y1="163.44576"
       x2="-313.75916"
       y2="233.33208" />
    <linearGradient
       inkscape:collect="always"
       xlink:href="#linearGradient3157"
       id="linearGradient2501"
       gradientUnits="userSpaceOnUse"
       gradientTransform="matrix(0.2695267,0,0,0.2695267,-710.80356,-470.41957)"
       x1="-313.5661"
       y1="136.26843"
       x2="-313.75916"
       y2="271.01389" />
    <linearGradient
       inkscape:collect="always"
       xlink:href="#linearGradient3157"
       id="linearGradient3287"
       gradientUnits="userSpaceOnUse"
       gradientTransform="matrix(0.2695267,0,0,0.2695267,-710.80356,-470.41957)"
       x1="-313.5661"
       y1="136.26843"
       x2="-313.75916"
       y2="271.01389" />
    <linearGradient
       inkscape:collect="always"
       xlink:href="#linearGradient3157"
       id="linearGradient3306"
       gradientUnits="userSpaceOnUse"
       gradientTransform="matrix(0.2695267,0,0,0.2695267,-710.80356,-470.41957)"
       x1="-313.5661"
       y1="136.26843"
       x2="-313.75916"
       y2="271.01389" />
    <radialGradient
       inkscape:collect="always"
       xlink:href="#linearGradient3191"
       id="radialGradient3347"
       gradientUnits="userSpaceOnUse"
       gradientTransform="matrix(0.817576,8.309264e-3,-2.7021861e-3,0.4972359,-200.08765,50.152202)"
       cx="-1098.0358"
       cy="81.605591"
       fx="-1098.0358"
       fy="81.605591"
       r="96.923882" />
    <radialGradient
       inkscape:collect="always"
       xlink:href="#linearGradient3230"
       id="radialGradient3349"
       gradientUnits="userSpaceOnUse"
       gradientTransform="matrix(0.5778086,-7.9909205e-2,6.2694857e-2,0.2019931,-157.70944,-459.18026)"
       cx="-1125.3101"
       cy="69.815575"
       fx="-1125.3101"
       fy="69.815575"
       r="210.61176" />
    <radialGradient
       inkscape:collect="always"
       xlink:href="#linearGradient3222"
       id="radialGradient3351"
       gradientUnits="userSpaceOnUse"
       gradientTransform="matrix(-1.594428e-6,-0.3501502,0.7266449,-1.9687083e-6,-1171.623,-322.44682)"
       cx="-1120.7643"
       cy="69.988838"
       fx="-1120.7643"
       fy="69.988838"
       r="86.368042" />
    <linearGradient
       inkscape:collect="always"
       xlink:href="#linearGradient3157"
       id="linearGradient3353"
       gradientUnits="userSpaceOnUse"
       gradientTransform="matrix(0.2695267,0,0,0.2695267,-710.80356,-470.41957)"
       x1="-313.5661"
       y1="136.26843"
       x2="-313.75916"
       y2="271.01389" />
    <linearGradient
       inkscape:collect="always"
       xlink:href="#linearGradient3157"
       id="linearGradient3364"
       gradientUnits="userSpaceOnUse"
       gradientTransform="matrix(0.2695267,0,0,0.2695267,-710.80356,-470.41957)"
       x1="-313.5661"
       y1="136.26843"
       x2="-315.29636"
       y2="240.5258" />
    <linearGradient
       inkscape:collect="always"
       xlink:href="#linearGradient3246"
       id="linearGradient3220"
       x1="-803.66089"
       y1="-375.79068"
       x2="-805.48438"
       y2="-313.95193"
       gradientUnits="userSpaceOnUse"
       gradientTransform="translate(-0.6,-0.6)" />
  </defs>
  <sodipodi:namedview
     id="base"
     pagecolor="#000000"
     bordercolor="#666666"
     borderopacity="1.0"
     gridtolerance="10000"
     guidetolerance="10"
     objecttolerance="10"
     inkscape:pageopacity="1"
     inkscape:pageshadow="2"
     inkscape:zoom="3.6203867"
     inkscape:cx="255.12134"
     inkscape:cy="51.397364"
     inkscape:document-units="px"
     inkscape:current-layer="layer1"
     showgrid="false"
     inkscape:window-width="1278"
     inkscape:window-height="774"
     inkscape:window-x="0"
     inkscape:window-y="24"
     showborder="false" />
  <metadata
     id="metadata7">
    <rdf:RDF>
      <cc:Work
         rdf:about="">
        <dc:format>image/svg+xml</dc:format>
        <dc:type
           rdf:resource="http://purl.org/dc/dcmitype/StillImage" />
      </cc:Work>
    </rdf:RDF>
  </metadata>
  <g
     inkscape:label="Layer 1"
     inkscape:groupmode="layer"
     id="layer1"
     transform="translate(1051.3241,399.77287)">
    <path
       style="font-size:64px;font-style:italic;font-variant:normal;font-weight:normal;font-stretch:normal;fill:#ffffff;fill-opacity:1;stroke:none;stroke-width:1px;stroke-linecap:butt;stroke-linejoin:miter;stroke-opacity:1;font-family:Drosselmeyer;-inkscape-font-specification:Drosselmeyer Italic"
       d="M -1041.6601,-367.87677 L -1029.6921,-367.87677 L -1035.3881,-339.39677 L -1043.5801,-339.39677 L -1044.0921,-336.70877 L -1029.6281,-336.70877 C -1024.8068,-336.70877 -1021.4575,-338.5221 -1019.5801,-342.14877 L -1013.4361,-372.74077 L -1013.5641,-375.04477 C -1014.6735,-377.09273 -1016.5935,-378.11673 -1019.3241,-378.11677 L -1043.0681,-378.11677 L -1051.3241,-336.70877 L -1047.8681,-336.70877 L -1041.6601,-367.87677 M -1000.4981,-345.41277 L -1001.6501,-339.58877 L -1012.5301,-339.58877 L -1011.3781,-345.41277 L -1000.4981,-345.41277 M -1005.2981,-354.18077 L -998.6421,-354.18077 L -999.8581,-348.29277 L -1010.4181,-348.29277 C -1013.3194,-348.29276 -1015.0048,-347.07676 -1015.4741,-344.64477 L -1016.3061,-340.61277 C -1016.8181,-338.0101 -1015.4741,-336.70877 -1012.2741,-336.70877 L -996.5301,-336.70877 C -992.64745,-336.70877 -990.00212,-338.5861 -988.5941,-342.34077 L -984.8181,-361.34877 C -984.26346,-364.20741 -985.86346,-365.63674 -989.6181,-365.63677 L -1011.3141,-365.63677 L -1013.5541,-354.18077 L -1005.2981,-354.18077 M -947.3171,-365.31677 L -960.3091,-365.31677 L -979.8931,-339.58877 L -974.7091,-365.63677 L -979.1891,-365.63677 L -984.9491,-336.70877 L -968.8851,-336.70877 L -947.3171,-365.31677 M -944.5551,-348.29277 L -943.4031,-354.05277 L -932.5871,-354.05277 L -933.7391,-348.29277 L -944.5551,-348.29277 M -943.5311,-339.58877 C -945.40844,-339.58877 -946.19777,-340.3141 -945.8991,-341.76477 L -945.1951,-345.41277 L -921.6431,-345.41277 L -918.6351,-360.26077 C -917.95246,-363.84474 -919.18979,-365.63674 -922.3471,-365.63677 L -938.1551,-365.63677 C -942.03777,-365.63674 -944.66177,-363.75941 -946.0271,-360.00477 L -949.8671,-340.99677 C -950.42176,-338.1381 -948.82177,-336.70877 -945.0671,-336.70877 L -923.3711,-336.70877 L -922.7951,-339.58877 L -943.5311,-339.58877 M -898.5421,-378.24477 L -902.6381,-357.95677 L -906.2221,-357.95677 L -904.4301,-366.66077 L -912.5581,-366.66077 L -910.2541,-378.24477 L -898.5421,-378.24477 M -872.1861,-365.63677 C -867.91946,-365.63674 -866.10613,-363.95141 -866.7461,-360.58077 L -868.1541,-353.79677 L -894.2021,-353.79677 L -895.2901,-348.29277 L -869.1141,-348.29277 L -870.2661,-342.40477 C -872.27146,-338.60744 -875.64212,-336.70877 -880.3781,-336.70877 L -902.0741,-336.70877 L -901.4981,-339.58877 L -886.0741,-339.58877 L -884.9221,-345.41277 L -900.3461,-345.41277 L -897.4661,-359.87677 C -896.0581,-363.07674 -893.9461,-364.99674 -891.1301,-365.63677 L -872.1861,-365.63677 M -731.0991,-367.94077 L -729.6911,-375.17277 C -729.26447,-377.22073 -730.54446,-378.24473 -733.5311,-378.24477 L -751.3231,-378.24477 C -754.77911,-377.86073 -756.8271,-376.09006 -757.4671,-372.93277 L -763.8671,-340.74077 C -764.42176,-338.05277 -762.82177,-336.70877 -759.0671,-336.70877 L -737.3711,-336.70877 L -732.1871,-362.75677 L -749.7871,-362.75677 L -751.8351,-352.51677 L -747.3551,-352.51677 L -749.9151,-339.58877 L -757.5311,-339.58877 C -759.40844,-339.58877 -760.2191,-340.22877 -759.9631,-341.50877 L -754.6511,-367.94077 L -731.0991,-367.94077 M -717.1231,-345.41277 L -718.2751,-339.58877 L -729.1551,-339.58877 L -728.0031,-345.41277 L -717.1231,-345.41277 M -721.9231,-354.18077 L -715.2671,-354.18077 L -716.4831,-348.29277 L -727.0431,-348.29277 C -729.94443,-348.29276 -731.62977,-347.07676 -732.0991,-344.64477 L -732.9311,-340.61277 C -733.4431,-338.0101 -732.0991,-336.70877 -728.8991,-336.70877 L -713.1551,-336.70877 C -709.27245,-336.70877 -706.62712,-338.5861 -705.2191,-342.34077 L -701.4431,-361.34877 C -700.88846,-364.20741 -702.48846,-365.63674 -706.2431,-365.63677 L -727.9391,-365.63677 L -730.1791,-354.18077 L -721.9231,-354.18077 M -696.6461,-336.70877 L -692.5501,-357.12477 L -697.4781,-357.12477 L -693.2541,-378.24477 L -681.4141,-378.24477 L -689.2221,-339.39677 L -686.4701,-339.39677 L -686.9821,-336.70877 L -696.6461,-336.70877 M -665.7481,-345.41277 L -666.9001,-339.58877 L -677.7801,-339.58877 L -676.6281,-345.41277 L -665.7481,-345.41277 M -670.5481,-354.18077 L -663.8921,-354.18077 L -665.1081,-348.29277 L -675.6681,-348.29277 C -678.56943,-348.29276 -680.25477,-347.07676 -680.7241,-344.64477 L -681.5561,-340.61277 C -682.0681,-338.0101 -680.7241,-336.70877 -677.5241,-336.70877 L -661.7801,-336.70877 C -657.89745,-336.70877 -655.25212,-338.5861 -653.8441,-342.34077 L -650.0681,-361.34877 C -649.51346,-364.20741 -651.11346,-365.63674 -654.8681,-365.63677 L -676.5641,-365.63677 L -678.8041,-354.18077 L -670.5481,-354.18077 M -642.3911,-356.93277 L -640.6631,-365.63677 L -644.4391,-365.63677 L -646.4231,-355.52477 C -645.44177,-353.69009 -643.52177,-352.23942 -640.6631,-351.17277 C -645.10044,-350.95942 -647.7031,-348.97543 -648.4711,-345.22077 L -650.1991,-336.70877 L -646.5511,-336.70877 L -644.8231,-345.22077 C -644.1831,-347.26876 -642.66844,-348.29276 -640.2791,-348.29277 L -633.4311,-348.29277 L -635.7351,-336.70877 L -621.2711,-336.70877 L -619.3511,-346.30877 C -618.92446,-348.52743 -621.52713,-350.19142 -627.1591,-351.30077 C -621.01513,-352.70875 -617.68713,-354.65009 -617.1751,-357.12477 L -615.5111,-365.63677 L -630.1031,-365.63677 L -632.4071,-354.05277 L -637.7831,-354.05277 C -640.51377,-354.43675 -642.04977,-355.39675 -642.3911,-356.93277 M -608.6381,-336.70877 C -612.4781,-336.75144 -614.03543,-338.5861 -613.3101,-342.21277 L -608.6381,-365.63677 L -604.9901,-365.63677 L -610.1101,-340.03677 L -602.8781,-340.03677 L -597.7581,-365.63677 L -579.7101,-365.63677 L -586.0461,-333.82877 C -586.72879,-330.33011 -588.56346,-328.38878 -591.5501,-328.00477 L -618.3021,-328.00477 L -617.7261,-330.94877 L -604.6701,-330.94877 L -603.5181,-336.70877 L -608.6381,-336.70877"
       id="text3210" />
    <path
       sodipodi:type="arc"
       style="opacity:0.63070541;fill:url(#radialGradient3347);fill-opacity:1;stroke:none;stroke-width:10;stroke-linecap:butt;stroke-miterlimit:4;stroke-dasharray:none;stroke-opacity:1"
       id="path3322"
       sodipodi:cx="-1098.0358"
       sodipodi:cy="81.605591"
       sodipodi:rx="91.923882"
       sodipodi:ry="48.192493"
       d="M -1006.1119,81.605591 A 91.923882,48.192493 0 1 1 -1189.9596,81.605591 A 91.923882,48.192493 0 1 1 -1006.1119,81.605591 z"
       transform="matrix(0.9389596,-0.1340311,0.1015279,0.6966153,212.54873,-561.30515)" />
    <g
       id="g3332">
      <path
         sodipodi:nodetypes="ccccccc"
         id="path3320"
         d="M -811.7787,-344.11519 C -842.09898,-332.95667 -879.43405,-326.9918 -879.43405,-326.9918 C -854.99082,-325.59205 -848.82508,-314.6836 -848.82508,-314.6836 C -701.07267,-368.83858 -793.6329,-378.96436 -811.45591,-365.96142 C -811.45591,-365.96142 -799.38671,-375.99636 -758.94751,-379.91853 C -757.59108,-391.79105 -738.32379,-399.77287 -738.32379,-399.77287 C -921.15739,-357.84292 -840.19573,-333.49071 -811.7787,-344.11519 z"
         style="fill:url(#radialGradient3349);fill-opacity:1;fill-rule:evenodd;stroke:none;stroke-width:5;stroke-linecap:butt;stroke-linejoin:miter;stroke-miterlimit:4;stroke-dasharray:none;stroke-opacity:1" />
      <path
         transform="matrix(0.3774079,-0.1090039,0.2177317,0.3358989,-404.17507,-501.53365)"
         d="M -1036.4165,69.988838 A 84.34774,37.880722 0 1 1 -1205.112,69.988838 A 84.34774,37.880722 0 1 1 -1036.4165,69.988838 z"
         sodipodi:ry="37.880722"
         sodipodi:rx="84.34774"
         sodipodi:cy="69.988838"
         sodipodi:cx="-1120.7643"
         id="path3324"
         style="fill:url(#radialGradient3351);fill-opacity:1;stroke:none;stroke-width:10;stroke-linecap:butt;stroke-miterlimit:4;stroke-dasharray:none;stroke-opacity:1"
         sodipodi:type="arc" />
    </g>
    <path
       style="font-size:64px;font-style:italic;font-variant:normal;font-weight:normal;font-stretch:normal;fill:url(#linearGradient3220);fill-opacity:1;stroke:none;stroke-width:1px;stroke-linecap:butt;stroke-linejoin:miter;stroke-opacity:1;font-family:Drosselmeyer;-inkscape-font-specification:Drosselmeyer Italic"
       d="M -1040.6905,-366.02271 L -1028.7225,-366.02271 L -1034.4185,-337.54271 L -1042.6105,-337.54271 L -1043.1225,-334.85471 L -1028.6585,-334.85471 C -1023.8372,-334.85471 -1020.4879,-336.66804 -1018.6105,-340.29471 L -1012.4665,-370.88671 L -1012.5945,-373.19071 C -1013.7039,-375.23867 -1015.6239,-376.26266 -1018.3545,-376.26271 L -1042.0985,-376.26271 L -1050.3545,-334.85471 L -1046.8985,-334.85471 L -1040.6905,-366.02271 M -999.52849,-343.55871 L -1000.6805,-337.73471 L -1011.5605,-337.73471 L -1010.4085,-343.55871 L -999.52849,-343.55871 M -1004.3285,-352.32671 L -997.67249,-352.32671 L -998.88849,-346.43871 L -1009.4485,-346.43871 C -1012.3498,-346.43869 -1014.0352,-345.2227 -1014.5045,-342.79071 L -1015.3365,-338.75871 C -1015.8485,-336.15604 -1014.5045,-334.85471 -1011.3045,-334.85471 L -995.56049,-334.85471 C -991.67785,-334.85471 -989.03252,-336.73204 -987.62449,-340.48671 L -983.84849,-359.49471 C -983.29386,-362.35334 -984.89386,-363.78268 -988.64849,-363.78271 L -1010.3445,-363.78271 L -1012.5845,-352.32671 L -1004.3285,-352.32671 M -946.34749,-363.46271 L -959.33949,-363.46271 L -978.92349,-337.73471 L -973.73949,-363.78271 L -978.21949,-363.78271 L -983.97949,-334.85471 L -967.91549,-334.85471 L -946.34749,-363.46271 M -943.58549,-346.43871 L -942.43349,-352.19871 L -931.61749,-352.19871 L -932.76949,-346.43871 L -943.58549,-346.43871 M -942.56149,-337.73471 C -944.43883,-337.7347 -945.22816,-338.46004 -944.92949,-339.91071 L -944.22549,-343.55871 L -920.67349,-343.55871 L -917.66549,-358.40671 C -916.98286,-361.99068 -918.22019,-363.78268 -921.37749,-363.78271 L -937.18549,-363.78271 C -941.06817,-363.78268 -943.69216,-361.90535 -945.05749,-358.15071 L -948.89749,-339.14271 C -949.45216,-336.28404 -947.85216,-334.85471 -944.09749,-334.85471 L -922.40149,-334.85471 L -921.82549,-337.73471 L -942.56149,-337.73471 M -897.57249,-376.39071 L -901.66849,-356.10271 L -905.25249,-356.10271 L -903.46049,-364.80671 L -911.58849,-364.80671 L -909.28449,-376.39071 L -897.57249,-376.39071 M -871.21649,-363.78271 C -866.94986,-363.78268 -865.13653,-362.09735 -865.77649,-358.72671 L -867.18449,-351.94271 L -893.23249,-351.94271 L -894.32049,-346.43871 L -868.14449,-346.43871 L -869.29649,-340.55071 C -871.30186,-336.75337 -874.67252,-334.85471 -879.40849,-334.85471 L -901.10449,-334.85471 L -900.52849,-337.73471 L -885.10449,-337.73471 L -883.95249,-343.55871 L -899.37649,-343.55871 L -896.49649,-358.02271 C -895.0885,-361.22268 -892.9765,-363.14268 -890.16049,-363.78271 L -871.21649,-363.78271 M -730.12949,-366.08671 L -728.72149,-373.31871 C -728.29486,-375.36667 -729.57486,-376.39066 -732.56149,-376.39071 L -750.35349,-376.39071 C -753.8095,-376.00666 -755.8575,-374.236 -756.49749,-371.07871 L -762.89749,-338.88671 C -763.45216,-336.1987 -761.85216,-334.85471 -758.09749,-334.85471 L -736.40149,-334.85471 L -731.21749,-360.90271 L -748.81749,-360.90271 L -750.86549,-350.66271 L -746.38549,-350.66271 L -748.94549,-337.73471 L -756.56149,-337.73471 C -758.43883,-337.7347 -759.2495,-338.3747 -758.99349,-339.65471 L -753.68149,-366.08671 L -730.12949,-366.08671 M -716.15349,-343.55871 L -717.30549,-337.73471 L -728.18549,-337.73471 L -727.03349,-343.55871 L -716.15349,-343.55871 M -720.95349,-352.32671 L -714.29749,-352.32671 L -715.51349,-346.43871 L -726.07349,-346.43871 C -728.97483,-346.43869 -730.66016,-345.2227 -731.12949,-342.79071 L -731.96149,-338.75871 C -732.47349,-336.15604 -731.12949,-334.85471 -727.92949,-334.85471 L -712.18549,-334.85471 C -708.30285,-334.85471 -705.65752,-336.73204 -704.24949,-340.48671 L -700.47349,-359.49471 C -699.91886,-362.35334 -701.51886,-363.78268 -705.27349,-363.78271 L -726.96949,-363.78271 L -729.20949,-352.32671 L -720.95349,-352.32671 M -695.67649,-334.85471 L -691.58049,-355.27071 L -696.50849,-355.27071 L -692.28449,-376.39071 L -680.44449,-376.39071 L -688.25249,-337.54271 L -685.50049,-337.54271 L -686.01249,-334.85471 L -695.67649,-334.85471 M -664.77849,-343.55871 L -665.93049,-337.73471 L -676.81049,-337.73471 L -675.65849,-343.55871 L -664.77849,-343.55871 M -669.57849,-352.32671 L -662.92249,-352.32671 L -664.13849,-346.43871 L -674.69849,-346.43871 C -677.59983,-346.43869 -679.28516,-345.2227 -679.75449,-342.79071 L -680.58649,-338.75871 C -681.09849,-336.15604 -679.75449,-334.85471 -676.55449,-334.85471 L -660.81049,-334.85471 C -656.92785,-334.85471 -654.28252,-336.73204 -652.87449,-340.48671 L -649.09849,-359.49471 C -648.54386,-362.35334 -650.14386,-363.78268 -653.89849,-363.78271 L -675.59449,-363.78271 L -677.83449,-352.32671 L -669.57849,-352.32671 M -641.42149,-355.07871 L -639.69349,-363.78271 L -643.46949,-363.78271 L -645.45349,-353.67071 C -644.47216,-351.83602 -642.55217,-350.38536 -639.69349,-349.31871 C -644.13083,-349.10536 -646.73349,-347.12136 -647.50149,-343.36671 L -649.22949,-334.85471 L -645.58149,-334.85471 L -643.85349,-343.36671 C -643.2135,-345.4147 -641.69883,-346.43869 -639.30949,-346.43871 L -632.46149,-346.43871 L -634.76549,-334.85471 L -620.30149,-334.85471 L -618.38149,-344.45471 C -617.95486,-346.67336 -620.55752,-348.33736 -626.18949,-349.44671 C -620.04552,-350.85469 -616.71752,-352.79602 -616.20549,-355.27071 L -614.54149,-363.78271 L -629.13349,-363.78271 L -631.43749,-352.19871 L -636.81349,-352.19871 C -639.54417,-352.58269 -641.08017,-353.54269 -641.42149,-355.07871 M -607.66849,-334.85471 C -611.5085,-334.89737 -613.06583,-336.73204 -612.34049,-340.35871 L -607.66849,-363.78271 L -604.02049,-363.78271 L -609.14049,-338.18271 L -601.90849,-338.18271 L -596.78849,-363.78271 L -578.74049,-363.78271 L -585.07649,-331.97471 C -585.75919,-328.47605 -587.59385,-326.53471 -590.58049,-326.15071 L -617.33249,-326.15071 L -616.75649,-329.09471 L -603.70049,-329.09471 L -602.54849,-334.85471 L -607.66849,-334.85471"
       id="text3205" />
    <text
       xml:space="preserve"
       style="font-size:40px;font-style:normal;font-weight:normal;fill:#000000;fill-opacity:1;stroke:none;stroke-width:1px;stroke-linecap:butt;stroke-linejoin:miter;stroke-opacity:1;font-family:Bitstream Vera Sans"
       x="676.72327"
       y="11.064032"
       id="text3206"
       transform="translate(-1028.3746,-399.77287)"><tspan
         sodipodi:role="line"
         id="tspan3208"
         x="676.72327"
         y="11.064032" /></text>
  </g>
</svg>
