<?xml version="1.0" encoding="UTF-8" standalone="no"?>
<!-- Created with Inkscape (http://www.inkscape.org/) -->

<svg
   xmlns:dc="http://purl.org/dc/elements/1.1/"
   xmlns:cc="http://creativecommons.org/ns#"
   xmlns:rdf="http://www.w3.org/1999/02/22-rdf-syntax-ns#"
   xmlns:svg="http://www.w3.org/2000/svg"
   xmlns="http://www.w3.org/2000/svg"
   version="1.1"
   width="100%"
   height="100%"
   viewBox="229.962 -511.654 703.566 252.655"
   id="svg2">
  <metadata
     id="metadata276">
    <rdf:RDF>
      <cc:Work
         rdf:about="">
        <dc:format>image/svg+xml</dc:format>
        <dc:type
           rdf:resource="http://purl.org/dc/dcmitype/StillImage" />
        <dc:title></dc:title>
      </cc:Work>
    </rdf:RDF>
  </metadata>
  <defs
     id="defs4">
    <clipPath
       id="clip0">
      <path
         d="m 297,-297 0,-206 506,0 0,206 z"
         id="path7" />
    </clipPath>
    <clipPath
       id="clip1">
      <path
         d="m 297,-297 0,-206 506,0 0,206 z"
         id="path10" />
    </clipPath>
    <clipPath
       id="clip2">
      <path
         d="m 290,-290 0,-220 520,0 0,220 z"
         id="path13" />
    </clipPath>
    <clipPath
       id="clip3">
      <path
         d="m 297,-297 0,-206 506,0 0,206 z"
         id="path16" />
    </clipPath>
    <clipPath
       id="clip4">
      <path
         d="m 290,-290 0,-220 520,0 0,220 z"
         id="path19" />
    </clipPath>
    <clipPath
       id="clip5">
      <path
         d="m 297,-297 0,-206 506,0 0,206 z"
         id="path22" />
    </clipPath>
    <clipPath
       id="clip6">
      <path
         d="m 290,-290 0,-220 520,0 0,220 z"
         id="path25" />
    </clipPath>
    <clipPath
       id="clip7">
      <path
         d="m 297,-297 0,-206 506,0 0,206 z"
         id="path28" />
    </clipPath>
    <clipPath
       id="clip8">
      <path
         d="m 290,-290 0,-220 520,0 0,220 z"
         id="path31" />
    </clipPath>
    <clipPath
       id="clip9">
      <path
         d="m 297,-297 0,-206 506,0 0,206 z"
         id="path34" />
    </clipPath>
    <clipPath
       id="clip10">
      <path
         d="m 290,-290 0,-220 520,0 0,220 z"
         id="path37" />
    </clipPath>
    <clipPath
       id="clip11">
      <path
         d="m 297,-297 0,-206 506,0 0,206 z"
         id="path40" />
    </clipPath>
    <clipPath
       id="clip12">
      <path
         d="m 290,-290 0,-220 520,0 0,220 z"
         id="path43" />
    </clipPath>
    <clipPath
       id="clip13">
      <path
         d="m 297,-297 0,-206 506,0 0,206 z"
         id="path46" />
    </clipPath>
    <clipPath
       id="clip14">
      <path
         d="m 290,-290 0,-220 520,0 0,220 z"
         id="path49" />
    </clipPath>
    <clipPath
       id="clip15">
      <path
         d="m 297,-297 0,-206 506,0 0,206 z"
         id="path52" />
    </clipPath>
    <clipPath
       id="clip16">
      <path
         d="m 290,-290 0,-220 520,0 0,220 z"
         id="path55" />
    </clipPath>
    <clipPath
       id="clip17">
      <path
         d="m 297,-297 0,-206 506,0 0,206 z"
         id="path58" />
    </clipPath>
    <clipPath
       id="clip18">
      <path
         d="m 290,-290 0,-220 520,0 0,220 z"
         id="path61" />
    </clipPath>
    <clipPath
       id="clip19">
      <path
         d="m 845,-297 0,-84 85.528,0 0,84 z"
         id="path64" />
    </clipPath>
  </defs>
  <g
     id="g66"
     style="font-size:9px;font-style:normal;font-weight:normal;font-stretch:normal;fill:none;stroke:#000000;stroke-width:0.40000001;stroke-linecap:butt;stroke-linejoin:miter;stroke-dasharray:none;font-family:Helvetica">
    <path
       d="m 300,-300 500,0"
       id="path68" />
    <path
       d="m 300,-300 500,0"
       id="path70" />
    <path
       d="m 300,-300 0,6"
       id="path72" />
    <text
       x="300"
       y="-289.5"
       transform="matrix(0.5,0.8660254,-0.8660254,0.5,-100.71435,-404.55762)"
       id="text74"
       style="fill:#000000;stroke:none">0</text>
    <path
       d="m 340.00002,-300 0,6"
       id="path76" />
    <text
       x="340.00003"
       y="-289.5"
       transform="matrix(0.5,0.8660254,-0.8660254,0.5,-80.714354,-439.19864)"
       id="text78"
       style="fill:#000000;stroke:none">20</text>
    <path
       d="m 380.00003,-300 0,6"
       id="path80" />
    <text
       x="380.00003"
       y="-289.5"
       transform="matrix(0.5,0.8660254,-0.8660254,0.5,-60.714354,-473.83965)"
       id="text82"
       style="fill:#000000;stroke:none">40</text>
    <path
       d="m 420.00005,-300 0,6"
       id="path84" />
    <text
       x="420.00006"
       y="-289.5"
       transform="matrix(0.5,0.8660254,-0.8660254,0.5,-40.714354,-508.48067)"
       id="text86"
       style="fill:#000000;stroke:none">60</text>
    <path
       d="m 460.00006,-300 0,6"
       id="path88" />
    <text
       x="460.00006"
       y="-289.5"
       transform="matrix(0.5,0.8660254,-0.8660254,0.5,-20.714354,-543.12169)"
       id="text90"
       style="fill:#000000;stroke:none">80</text>
    <path
       d="m 500.00008,-300 0,6"
       id="path92" />
    <text
       x="500.00009"
       y="-289.5"
       transform="matrix(0.5,0.8660254,-0.8660254,0.5,-0.7143544,-577.7627)"
       id="text94"
       style="fill:#000000;stroke:none">100</text>
    <path
       d="m 540.0001,-300 0,6"
       id="path96" />
    <text
       x="540.00012"
       y="-289.5"
       transform="matrix(0.5,0.8660254,-0.8660254,0.5,19.285646,-612.40372)"
       id="text98"
       style="fill:#000000;stroke:none">120</text>
    <path
       d="m 580.00011,-300 0,6"
       id="path100" />
    <text
       x="580.00012"
       y="-289.5"
       transform="matrix(0.5,0.8660254,-0.8660254,0.5,39.285646,-647.04473)"
       id="text102"
       style="fill:#000000;stroke:none">140</text>
    <path
       d="m 620.00013,-300 0,6"
       id="path104" />
    <text
       x="620.00012"
       y="-289.5"
       transform="matrix(0.5,0.8660254,-0.8660254,0.5,59.285646,-681.68575)"
       id="text106"
       style="fill:#000000;stroke:none">160</text>
    <path
       d="m 660.00014,-300 0,6"
       id="path108" />
    <text
       x="660.00012"
       y="-289.5"
       transform="matrix(0.5,0.8660254,-0.8660254,0.5,79.285646,-716.32677)"
       id="text110"
       style="fill:#000000;stroke:none">180</text>
    <path
       d="m 700.00016,-300 0,6"
       id="path112" />
    <text
       x="700.00018"
       y="-289.5"
       transform="matrix(0.5,0.8660254,-0.8660254,0.5,99.285646,-750.96778)"
       id="text114"
       style="fill:#000000;stroke:none">200</text>
    <path
       d="m 740.00018,-300 0,6"
       id="path116" />
    <text
       x="740.00018"
       y="-289.5"
       transform="matrix(0.5,0.8660254,-0.8660254,0.5,119.28565,-785.6088)"
       id="text118"
       style="fill:#000000;stroke:none">220</text>
    <path
       d="m 780.00019,-300 0,6"
       id="path120" />
    <text
       x="780.00018"
       y="-289.5"
       transform="matrix(0.5,0.8660254,-0.8660254,0.5,139.28565,-820.24981)"
       id="text122"
       style="fill:#000000;stroke:none">240</text>
    <text
       x="523.23853"
       y="-261.99924"
       id="text124"
       style="fill:#000000;stroke:none">Society Level</text>
    <path
       d="m 300,-325 500,0"
       id="path126"
       style="stroke:#b3b3b3;stroke-dasharray:1, 1" />
    <path
       d="m 300,-350 500,0"
       id="path128"
       style="stroke:#b3b3b3;stroke-dasharray:1, 1" />
    <path
       d="m 300,-375 500,0"
       id="path130"
       style="stroke:#b3b3b3;stroke-dasharray:1, 1" />
    <path
       d="m 300,-400 500,0"
       id="path132"
       style="stroke:#b3b3b3;stroke-dasharray:1, 1" />
    <path
       d="m 300,-425 500,0"
       id="path134"
       style="stroke:#b3b3b3;stroke-dasharray:1, 1" />
    <path
       d="m 300,-450 500,0"
       id="path136"
       style="stroke:#b3b3b3;stroke-dasharray:1, 1" />
    <path
       d="m 300,-475 500,0"
       id="path138"
       style="stroke:#b3b3b3;stroke-dasharray:1, 1" />
    <path
       d="m 300,-500 500,0"
       id="path140"
       style="stroke:#b3b3b3;stroke-dasharray:1, 1" />
    <path
       d="m 300,-300 0,-200"
       id="path142" />
    <path
       d="m 300,-300 -6,0"
       id="path144" />
    <text
       x="281.48999"
       y="-295.5"
       id="text146"
       style="fill:#000000;stroke:none">1.0</text>
    <path
       d="m 300,-332.52575 -6,0"
       id="path148" />
    <text
       x="276.48599"
       y="-328.02576"
       id="text150"
       style="fill:#000000;stroke:none">20.0</text>
    <path
       d="m 300,-365.0515 -6,0"
       id="path152" />
    <text
       x="271.48199"
       y="-360.55151"
       id="text154"
       style="fill:#000000;stroke:none">400.0</text>
    <path
       d="m 300,-397.57725 -6,0"
       id="path156" />
    <text
       x="266.478"
       y="-393.07724"
       id="text158"
       style="fill:#000000;stroke:none">8000.0</text>
    <path
       d="m 300,-430.103 -6,0"
       id="path160" />
    <text
       x="256.47"
       y="-425.603"
       id="text162"
       style="fill:#000000;stroke:none">160000.0</text>
    <path
       d="m 300,-462.62875 -6,0"
       id="path164" />
    <text
       x="251.466"
       y="-458.12875"
       id="text166"
       style="fill:#000000;stroke:none">3200000.0</text>
    <path
       d="m 300,-495.1545 -6,0"
       id="path168" />
    <text
       x="246.46201"
       y="-490.65451"
       id="text170"
       style="fill:#000000;stroke:none">64000000.0</text>
    <text
       x="241.96201"
       y="-365.48499"
       transform="matrix(0,-1,1,0,607.447,-123.523)"
       id="text172"
       style="fill:#000000;stroke:none">Surplus On Hand</text>
    <g
       clip-path="url(#clip0)"
       id="g174">
      <g
         clip-path="url(#clip1)"
         id="g176">
        <path
           d="m 299.9998,-357.25087 2,0 2,0 2,0 2,0 2,0 2,0 2.00001,0 2,-0.0555 2,-0.0553 2,-0.055 2,-0.0547 2,-0.0544 2,-0.0541 2,-0.1075 2,-0.10645 2,-0.10541 2,-0.15622 2,-0.15401 2.00001,-0.15185 2,-0.19923 2,-0.19563 2,-0.23969 2,-0.23451 2,-0.27488 2,-0.31214 2,-0.34608 2,-0.3766 2,-0.40366 2,-0.42736 2,-0.48429 2,-0.49845 2.00001,-0.54299 2,-0.58005 2,-0.61013 2,-0.66171 2,-0.67627 2,-0.71055 2,-0.73597 2,-0.77506 2,-0.80309 2,-0.84001 2,-0.88176 2,-0.89378 2.00001,-0.9265 2,-0.94591 2,-0.97857 2,-0.98563 2,-1.01388 2,-1.03663 2,-1.04554 2,-1.06622 2,-1.07953 2,-1.09243 2,-1.10904 2,-1.1163 2,-1.125 2.00001,-1.1372 2,-1.14272 2,-1.14903 2,-1.15736 2,-1.16275 2,-1.17193 2,-1.17547 2,-1.17775 2,-1.18305 2,-1.18721 2,-1.19054 2,-1.19311 2.00001,-1.19489 2,-1.19772 2,-1.19981 2,-1.20076 2,-1.20319 2,-1.20447 2,-1.20592 2,-1.20704 2,-1.20751 2,-1.20903 2,-1.20944 2,-1.21006 2,-1.21058 2.00001,-1.21099 2,-1.21135 2,-1.21177 2,-1.21215 2,-1.21214 2,-1.21247 2,-1.21259 2,-1.21261 2,-1.21275 2,-1.21282 2,-1.21277 2,-1.17044 2.00001,-1.05645 2,-0.96272 2,-0.88425 2,-0.81764 2,-0.76035 2,-0.71056 2,-0.66691 2,-0.62831 2,-0.59392 2,-0.56311 2,-0.53534 2,-0.51019 2,-0.48728 2.00001,-0.46634 2,-0.44714 2,-0.42945 2,-0.41311 2,-0.39797 2,-0.38389 2,-0.37078 2,-0.35853 2,-0.34708 2,-0.33632 2,-0.32621 2,-0.3167 2.00001,-0.30773 2,-0.29924 2,-0.29121 2,-0.28361 2,-0.27639 2,-0.26952 2,-0.263 2,-0.25678 2,-0.25084 2,-0.24518 2,-0.23976 2,-0.23459 2,-0.22962 2.00001,-0.22487 2,-0.2203 2,-0.21592 2,-0.21171 2,-0.20767 2,-0.20376 2,-0.20001 2,-0.1964 2,-0.1929 2,-0.18954 2,-0.18628 2,-0.18314 2.00001,-0.18011 2,-0.17716 2,-0.17432 2,-0.17157 2,-0.16889 2,-0.16631 2,-0.1638 2,-0.16137 2,-0.159 2,-0.15671 2,-0.15448 2,-0.15231 2,-0.1502 2.00001,-0.14816 2,-0.14616 2,-0.14422 2,-0.14232 2,-0.14049 2,-0.13869 2,-0.13694 2,-0.13524 2,-0.13357 2,-0.13195 2,-0.13037 2,-0.12882 2.00001,-0.1273 2,-0.12584 2,-0.12439 2,-0.12298 2,-0.1216 2,-0.12026 2,-0.11894 2,-0.11765 2,-0.11639 2,-0.11516 2,-0.11394 2,-0.11277 2,-0.1116 2.00001,-0.11047 2,-0.10936 2,-0.10826 2,-0.1072 2,-0.10615 2,-0.10512 2,-0.10411 2,-0.10313 2,-0.10215 2,-0.1012 2,-0.10027 2,-0.0994 2.00001,-0.0985 2,-0.0976 2,-0.0967 2,-0.0958 2,-0.095 2,-0.0942"
           id="path178"
           style="stroke-width:1.20000005" />
      </g>
      <g
         clip-path="url(#clip2)"
         id="g180" />
      <g
         clip-path="url(#clip3)"
         id="g182">
        <path
           d="m 299.9998,-357.52575 2,6.8931 2,22.78407 2,27.84858 2,0 2,0 2,0 2.00001,0 2,0 2,0 2,0 2,0 2,0 2,0 2,0 2,0 2,0 2,0 2,0 2.00001,0 2,0 2,0 2,0 2,0 2,0 2,0 2,-23.85606 2,-13.77269 2,-8.34248 2,-6.2764 2,-5.00324 2,-4.23394 2.00001,-3.67472 2,-3.27029 2,-2.94301 2,-2.71006 2,-2.50982 2,-2.34371 2,-2.21373 2,-2.09496 2,-1.99899 2,-1.91666 2,-1.84289 2,-1.77737 2.00001,-1.72142 2,-1.67274 2,-1.62796 2,-1.58933 2,-1.5537 2,-1.52238 2,-1.49468 2,-1.46904 2,-1.44653 2,-1.42553 2,-1.40711 2,-1.38966 2,-1.37465 2.00001,-1.36069 2,-1.34786 2,-1.33626 2,-1.32574 2,-1.31626 2,-1.30755 2,-1.29951 2,-1.29233 2,-1.2857 2,-1.27958 2,-1.27395 2,-1.2689 2.00001,-1.26422 2,-1.26 2,-1.2561 2,-1.25255 2,-1.24926 2,-1.24625 2,-1.24352 2,-1.241 2,-1.23867 2,-1.23655 2,-1.23458 2,-1.23277 2,-1.23113 2.00001,-1.22961 2,-1.22821 2,-1.22692 2,-1.22571 2,-1.22461 2,-1.22358 2,-1.22263 2,-1.22176 2,-1.22094 2,-1.22017 2,-1.21947 2,-0.90105 2.00001,-0.3315 2,-0.29109 2,-0.20774 2,-0.13358 2,-0.0616 2,0.009 2,0.08 2,0.15239 2,0.22797 2,0.30837 2,0.39568 2,0.49252 2,0.60251 2.00001,0.7305 2,0.88354 2,1.07263 2,1.31527 2,1.64206 2,1.57507 2,2.02246 2,2.7175 2,3.96304 2,6.92083 2,0.35716 2,-1.1e-4 2.00001,5e-4 2,-1.6e-4 2,4.4e-4 2,2.2e-4 2,-5e-5 2,1.6e-4 2,3.4e-4 2,1.1e-4 2,2.8e-4 2,5e-5 2,2.2e-4 2,4.5e-4 2,1.6e-4 2.00001,-5e-5 2,5.5e-4 2,-1.1e-4 2,5e-4 2,-1.6e-4 2,4.4e-4 2,2.2e-4 2,-5e-5 2,3.3e-4 2,1.1e-4 2,3.4e-4 2,1.1e-4 2.00001,3.3e-4 2,1.1e-4 2,3.3e-4 2,1.2e-4 2,3.3e-4 2,1.1e-4 2,-5e-5 2,5e-4 2,-6e-5 2,1.1e-4 2,3.3e-4 2,1.2e-4 2,3.3e-4 2.00001,1.1e-4 2,3.3e-4 2,1.1e-4 2,3.4e-4 2,1.1e-4 2,3.3e-4 2,1.1e-4 2,-5e-5 2,5e-4 2,-6e-5 2,1.1e-4 2,5e-4 2.00001,0 2,2.3e-4 2,3.9e-4 2,-6e-5 2,4.5e-4 2,0 2,1.6e-4 2,3.9e-4 2,2.2e-4 2,1.1e-4 2,2.8e-4 2,1.7e-4 2,0 2.00001,2.2e-4 2,3.9e-4 2,-5e-5 2,4.4e-4 2,0 2,1.7e-4 2,3.9e-4 2,2.2e-4 2,1.1e-4 2,2.8e-4 2,1.6e-4 2,0 2.00001,2.3e-4 2,2.2e-4 2,1.7e-4 2,3.3e-4 2,2.8e-4 2,1.7e-4"
           id="path184"
           style="stroke:#ff0000;stroke-width:1.20000005" />
      </g>
      <g
         clip-path="url(#clip4)"
         id="g186" />
      <g
         clip-path="url(#clip5)"
         id="g188">
        <path
           d="m 299.9998,-367.47425 2,-1.23045 2,-1.22699 2,-1.22674 2,-1.22713 2,-1.22651 2,-1.22384 2.00001,-1.22848 2,-1.22728 2,-1.22888 2,-1.22372 2,-1.22569 2,-1.22508 2,-1.22646 2,-1.22759 2,-1.2271 2,-1.22418 2,-1.22486 2,-1.22635 2.00001,-1.2269 2,-1.22537 2,-1.22527 2,-1.22466 2,-1.2256 2,-1.22462 2,-1.22493 2,-1.22465 2,-1.22464 2,-1.22435 2,-1.22493 2,-1.22464 2,-1.22437 2.00001,-1.22389 2,-1.22401 2,-1.22402 2,-1.22382 2,-1.22358 2,-1.22328 2,-1.22303 2,-1.22303 2,-1.22275 2,-1.2226 2,-1.22248 2,-1.22218 2.00001,-1.22204 2,-1.22186 2,-1.2217 2,-1.22148 2,-1.22129 2,-1.22113 2,-1.2209 2,-1.22071 2,-1.22053 2,-1.22035 2,-1.22016 2,-1.21994 2,-1.21974 2.00001,-1.21956 2,-1.21938 2,-1.21919 2,-1.21901 2,-1.2188 2,-1.21862 2,-1.21842 2,-1.21822 2,-1.21803 2,-1.21783 2,-1.21764 2,-1.21745 2.00001,-1.21725 2,-1.21706 2,-1.21686 2,-1.21667 2,-1.21649 2,-1.21628 2,-1.21609 2,-1.2159 2,-1.2157 2,-1.21551 2,-1.21532 2,-1.21512 2,-1.21493 2.00001,-1.21473 2,-1.21454 2,-1.21434 2,-1.21416 2,-1.21395 2,-1.21377 2,-1.21357 2,-1.21337 2,-1.21318 2,-1.21299 2,-1.21279 2,-0.80515 2.00001,1.9e-4 2,2e-4 2,1.9e-4 2,2e-4 2,1.9e-4 2,1.9e-4 2,2e-4 2,1.9e-4 2,2e-4 2,1.9e-4 2,2e-4 2,1.9e-4 2,1.9e-4 2.00001,2e-4 2,1.9e-4 2,2e-4 2,1.9e-4 2,2e-4 2,1.9e-4 2,1.9e-4 2,2e-4 2,1.9e-4 2,2e-4 2,1.9e-4 2,2e-4 2.00001,1.9e-4 2,1.9e-4 2,2e-4 2,1.9e-4 2,2e-4 2,1.9e-4 2,2e-4 2,1.9e-4 2,1.9e-4 2,2e-4 2,1.9e-4 2,2e-4 2,1.9e-4 2.00001,2e-4 2,1.9e-4 2,1.9e-4 2,2e-4 2,1.9e-4 2,2e-4 2,1.9e-4 2,2e-4 2,1.9e-4 2,2e-4 2,1.9e-4 2,1.9e-4 2.00001,2e-4 2,1.9e-4 2,2e-4 2,1.9e-4 2,2e-4 2,1.9e-4 2,1.9e-4 2,2e-4 2,1.9e-4 2,2e-4 2,1.9e-4 2,2e-4 2,1.9e-4 2.00001,2e-4 2,1.9e-4 2,1.9e-4 2,2e-4 2,1.9e-4 2,2e-4 2,1.9e-4 2,2e-4 2,1.9e-4 2,2e-4 2,1.9e-4 2,1.9e-4 2.00001,2e-4 2,1.9e-4 2,2e-4 2,1.9e-4 2,2e-4 2,1.9e-4 2,2e-4 2,1.9e-4 2,1.9e-4 2,2e-4 2,1.9e-4 2,2e-4 2,1.9e-4 2.00001,2e-4 2,1.9e-4 2,2e-4 2,1.9e-4 2,2e-4 2,1.9e-4 2,1.9e-4 2,2e-4 2,1.9e-4 2,2e-4 2,1.9e-4 2,2e-4 2.00001,1.9e-4 2,2e-4 2,1.9e-4 2,2e-4 2,1.9e-4 2,1.9e-4"
           id="path190"
           style="stroke:#00008a;stroke-width:1.20000005" />
      </g>
      <g
         clip-path="url(#clip6)"
         id="g192" />
      <g
         clip-path="url(#clip7)"
         id="g194">
        <path
           d="m 299.9998,-375 2,-0.15095 2,-0.19104 2,-0.24961 2,-0.28413 2,-0.34502 2,-0.40006 2.00001,-0.45779 2,-0.49938 2,-0.55905 2,-0.61652 2,-0.65597 2,-0.70704 2,-0.74637 2,-0.78698 2,-0.82687 2,-0.85436 2,-0.88997 2,-0.91682 2.00001,-0.93973 2,-0.96199 2,-0.97899 2,-0.99397 2,-1.00899 2,-1.01773 2,-1.02783 2,-1.03564 2,-1.04078 2,-1.0448 2,-1.04864 2,-1.05002 2,-1.05267 2.00001,-1.05183 2,-1.05203 2,-1.05025 2,-1.049 2,-1.0466 2,-1.04418 2,-1.04106 2,-1.03803 2,-1.03445 2,-1.03037 2,-1.02628 2,-1.02124 2.00001,-1.01689 2,-1.01148 2,-1.0061 2,-1.00087 2,-0.99501 2,-0.98857 2,-0.98239 2,-0.97583 2,-0.96903 2,-0.96172 2,-0.95421 2,-0.9463 2,-0.93809 2.00001,-0.92936 2,-0.92036 2,-0.91081 2,-0.90065 2,-0.88993 2,-0.87865 2,-0.86664 2,-0.85383 2,-0.84018 2,-0.8256 2,-0.80997 2,-0.79317 2.00001,-0.77498 2,-0.75531 2,-0.73392 2,-0.71058 2,-0.68495 2,-0.65673 2,-0.62546 2,-0.59064 2,-0.55155 2,-0.5074 2,-0.45709 2,-0.39926 2,-0.33203 2.00001,-0.25288 2,-0.15835 2,-0.0434 2,0.10305 2,0.29215 2,0.54264 2,0.89073 2,1.40835 2,2.26162 2,3.94457 2,8.99536 2,30.74764 2.00001,-11.58033 2,-0.42848 2,-1.0144 2,-0.87336 2,-0.81308 2,-0.75642 2,-0.70714 2,-0.66344 2,-0.62564 2,-0.59155 2,-0.56097 2,-0.53305 2,-0.50845 2.00001,-0.48569 2,-0.46458 2,-0.44582 2,-0.42822 2,-0.41198 2,-0.39665 2,-0.38293 2,-0.36987 2,-0.35769 2,-0.34606 2,6.73953 2,0.35793 2.00001,-4.4e-4 2,8.9e-4 2,-4.5e-4 2,4.5e-4 2,4.4e-4 2,0 2,0 2,4.5e-4 2,0 2,4.4e-4 2,0 2,0 2,4.5e-4 2.00001,4.4e-4 2,-4.4e-4 2,8.9e-4 2,-4.5e-4 2,8.9e-4 2,-4.4e-4 2,4.4e-4 2,4.5e-4 2,-1.45163 2,3.8e-4 2,0 2,3.9e-4 2.00001,0 2,3.9e-4 2,0 2,3.9e-4 2,0 2,3.9e-4 2,3.9e-4 2,-3.9e-4 2,7.8e-4 2,0 2,0 2,3.9e-4 2,0 2.00001,3.9e-4 2,0 2,3.9e-4 2,0 2,3.9e-4 2,0 2,3.9e-4 2,3.9e-4 2,-3.9e-4 2,7.8e-4 2,0 2,-1.67551 2.00001,6.7e-4 2,0 2,0 2,6.7e-4 2,-3.4e-4 2,6.7e-4 2,0 2,0 2,3.3e-4 2,3.4e-4 2,0 2,3.3e-4 2,3.4e-4 2.00001,0 2,0 2,6.6e-4 2,-3.3e-4 2,6.7e-4 2,0 2,0 2,3.3e-4 2,3.4e-4 2,0 2,3.3e-4 2,3.3e-4 2.00001,0 2,-1.98103 2,2.8e-4 2,0 2,2.8e-4 2,2.7e-4"
           id="path196"
           style="stroke:#b3b3b3;stroke-width:1.20000005" />
      </g>
      <g
         clip-path="url(#clip8)"
         id="g198" />
      <g
         clip-path="url(#clip9)"
         id="g200">
        <path
           d="m 299.9998,-300 2,0 2,0 2,0 2,0 2,0 2,0 2.00001,0 2,0 2,0 2,0 2,0 2,0 2,0 2,0 2,0 2,0 2,0 2,0 2.00001,0 2,0 2,0 2,0 2,0 2,0 2,0 2,0 2,0 2,0 2,0 2,0 2,0 2.00001,0 2,0 2,0 2,0 2,0 2,0 2,0 2,0 2,0 2,0 2,0 2,0 2.00001,0 2,0 2,0 2,0 2,0 2,0 2,0 2,0 2,-7.52575 2,-4.40228 2,-3.12347 2,-2.42275 2,-3.6532 2.00001,-2.72861 2,-3.12347 2,-2.42275 2,-2.56656 2,-2.07436 2,-2.13575 2,-2.10802 2,-2.03263 2,-1.9353 2,-1.8308 2,-1.88553 2,-1.7409 2.00001,-1.73096 2,-1.68998 2,-1.71551 2,-1.69751 2,-1.65324 2,-1.54142 2,-1.58205 2,-1.54142 2,-1.55902 2,-1.54447 2,-1.53569 2,-1.50499 2,-1.50068 2.00001,-1.49166 2,-1.47773 2,-1.4723 2,-1.45799 2,-1.45696 2,-1.45231 2,-1.44322 2,-1.43635 2,-1.42875 2,-1.42397 2,-1.42326 2,-1.37068 2.00001,-1.23473 2,-1.12143 2,-1.03101 2,-0.95764 2,-0.89232 2,-0.83596 2,-0.78681 2,-0.74355 2,-0.70518 2,-0.67091 2,-0.6401 2,-0.61381 2,-0.58687 2.00001,-0.56377 2,-0.5426 2,-0.5244 2,-0.5063 2,-0.48953 2,-0.47285 2,-0.4595 2,-0.44594 2,-0.43325 2,-0.42134 2,-0.41015 2,-0.39959 2.00001,-0.38963 2,-0.38022 2,-0.37207 2,-0.36356 2,-0.35474 2,-0.34708 2,-0.34048 2,-0.33349 2,-0.32681 2,-0.3198 2,-0.31433 2,-0.30847 2,-0.30286 2.00001,-0.29746 2,-0.29229 2,-0.2873 2,-0.2825 2,-0.27789 2,-0.27393 2,-0.26961 2,-0.26497 2,-0.26096 2,-0.25754 2,-0.25377 2,-0.25012 2.00001,-0.24618 2,-0.24318 2,-0.23987 2,-0.23665 2,-0.23352 2,-0.23087 2,-0.22754 2,-0.22468 2,-0.22189 2,-0.21954 2,-0.21688 2,-0.21397 2,-0.21147 2.00001,-0.20936 2,-0.20697 2,-0.20464 2,-0.20238 2,-0.20016 2,-0.198 2,-0.19589 2,-0.19382 2,-0.1921 2,-0.18984 2,-0.18791 2,-0.18604 2.00001,-0.18445 2,-0.18265 2,-0.18087 2,-0.1789 2,-0.17744 2,-0.17579 2,-0.17416 2,-0.17256 2,-0.17099 2,-0.16947 2,-0.16796 2,-0.16648 2,-0.16525 2.00001,-0.16362 2,-0.16222 2,-0.16086 2,-0.15971 2,-0.15839 2,-0.15709 2,-0.15562 2,-0.15457 2,-0.15332 2,-0.15212 2,-0.15093 2,-0.14975 2.00001,-0.1486 2,-0.14747 2,-0.14636 2,-0.14543 2,-0.14435 2,-0.14311"
           id="path202"
           style="stroke:#8ebc8e;stroke-width:1.20000005" />
      </g>
      <g
         clip-path="url(#clip10)"
         id="g204" />
      <g
         clip-path="url(#clip11)"
         id="g206">
        <path
           d="m 299.9998,-300 2,0 2,0 2,0 2,0 2,0 2,0 2.00001,0 2,0 2,0 2,0 2,0 2,0 2,0 2,0 2,0 2,0 2,0 2,0 2.00001,0 2,0 2,0 2,0 2,0 2,0 2,0 2,0 2,0 2,0 2,0 2,0 2,0 2.00001,0 2,0 2,0 2,0 2,0 2,0 2,0 2,0 2,0 2,-7.52575 2,-4.40228 2,-3.12347 2.00001,-2.42275 2,-3.6532 2,-2.72861 2,-2.17876 2,-2.61838 2,-2.10802 2,-2.29426 2,-1.89302 2,-1.97953 2,-1.97953 2,-1.92915 2,-1.85254 2,-1.76453 2.00001,-1.67367 2,-1.7179 2,-1.71143 2,-1.67367 2,-1.61813 2,-1.62584 2,-1.60153 2,-1.55783 2,-1.50342 2,-1.48484 2,-1.48546 2,-1.4942 2.00001,-1.47691 2,-1.44303 2,-1.4409 2,-1.43682 2,-1.42932 2,-1.43185 2,-1.42531 2,-1.41144 2,-1.41072 2,-1.40719 2,-1.39988 2,-1.39494 2,-1.39512 2.00001,-1.39109 2,-1.38694 2,-1.38077 2,-1.38177 2,-1.37587 2,-1.37455 2,-1.3693 2,-1.36808 2,-1.36543 2,-1.36159 2,-1.35941 2,-1.30916 2.00001,-1.18154 2,-1.07761 2,-0.99039 2,-0.91857 2,-0.85549 2,-0.80171 2,-0.75471 2,-0.71262 2,-0.67588 2,-0.64189 2,-0.61243 2,-0.58526 2,-0.56154 2.00001,-0.53939 2,-0.51863 2,-0.49995 2,-0.48231 2,-0.46634 2,-0.45151 2,-0.43698 2,-0.42412 2,-0.41172 2,-0.40075 2,-0.38979 2,-0.37978 2.00001,-0.37031 2,-0.36109 2,-0.35262 2,-0.34408 2,-0.33648 2,-0.329 2,-0.32212 2,-0.31578 2,-0.30928 2,-0.30327 2,-0.29732 2,-0.29182 2,-0.28655 2.00001,-0.28111 2,-0.27626 2,-0.27141 2,-0.26711 2,-0.26261 2,-0.25845 2,-0.25443 2,-0.25039 2,-0.24665 2,-0.24272 2,-0.23924 2,-0.2357 2.00001,-0.23245 2,-0.22942 2,-0.2262 2,-0.22323 2,-0.2202 2,-0.21739 2,-0.21467 2,-0.21177 2,-0.2092 2,-0.20658 2,-0.20415 2,-0.20179 2,-0.19948 2.00001,-0.19723 2,-0.19493 2,-0.1928 2,-0.19061 2,-0.18847 2,-0.1865 2,-0.18446 2,-0.18268 2,-0.18074 2,-0.17893 2,-0.17708 2,-0.17536 2.00001,-0.17367 2,-0.17184 2,-0.17024 2,-0.16857 2,-0.16703 2,-0.16552 2,-0.16404 2,-0.16259 2,-0.16109 2,-0.15969 2,-0.15825 2,-0.15683 2,-0.15551 2.00001,-0.15416 2,-0.15289 2,-0.15165 2,-0.15043 2,-0.14916 2,-0.14799 2,-0.14684 2,-0.14563 2,-0.14445 2,-0.14329 2,-0.14222 2,-0.14116 2.00001,-0.14012 2,-0.13909 2,-0.13803 2,-0.13704 2,-0.136 2,-0.13499"
           id="path208"
           style="stroke:#bcb66b;stroke-width:1.20000005" />
      </g>
      <g
         clip-path="url(#clip12)"
         id="g210" />
      <g
         clip-path="url(#clip13)"
         id="g212">
        <path
           d="m 299.9998,-325 2,1.14394 2,1.27881 2,1.4498 2,1.67367 2,1.97953 2,2.42275 2.00001,3.12347 2,4.40228 2,7.52575 2,0 2,0 2,0 2,0 2,0 2,0 2,0 2,0 2,0 2.00001,0 2,0 2,0 2,0 2,0 2,0 2,0 2,0 2,0 2,-7.52575 2,-4.40228 2,-3.12347 2,-4.40228 2.00001,-3.12347 2,-2.42275 2,-2.84858 2,-2.25442 2,-2.42275 2,-2.42275 2,-2.33554 2,-2.21055 2,-2.07436 2,-2.13575 2,-1.94717 2,-1.92538 2.00001,-1.86584 2,-1.88387 2,-1.76933 2,-1.8012 2,-1.72296 2,-1.63989 2,-1.64464 2,-1.65497 2,-1.6308 2,-1.61367 2,-1.57404 2,-1.58408 2,-1.56338 2.00001,-1.5549 2,-1.53707 2,-1.52391 2,-1.51131 2,-1.51478 2,-1.50081 2,-1.4952 2,-1.48601 2,-1.48285 2,-1.47159 2,-1.4694 2,-1.45958 2.00001,-1.45536 2,-1.44942 2,-1.44489 2,-1.4389 2,-1.43523 2,-1.4291 2,-1.42625 2,-1.42186 2,-1.41652 2,-1.41315 2,-1.4096 2,-1.40594 2,-1.4026 2.00001,-1.39899 2,-1.39557 2,-1.39272 2,-1.38965 2,-1.38669 2,-1.38377 2,-1.38088 2,-1.37825 2,-1.37553 2,-1.37303 2,-1.3705 2,-1.32083 2.00001,-1.19137 2,-1.08618 2,-0.99893 2,-0.92536 2,-0.86248 2,-0.80795 2,-0.76048 2,-0.71865 2,-0.68149 2,-0.64835 2,-0.61839 2,-0.59137 2,-0.5668 2.00001,-0.54436 2,-0.52378 2,-0.50481 2,-0.48732 2,-0.47112 2,-0.45608 2,-0.44204 2,-0.4289 2,-0.41664 2,-0.40513 2,-0.3943 2,-0.3841 2.00001,-0.37444 2,-0.36533 2,-0.35671 2,-0.34853 2,-0.34076 2,-0.33334 2,-0.3263 2,-0.31956 2,-0.31314 2,-0.30701 2,-0.30113 2,-0.2955 2,-0.29014 2.00001,-0.28496 2,-0.28 2,-0.27519 2,-0.27059 2,-0.26616 2,-0.2619 2,-0.25777 2,-0.25378 2,-0.24994 2,-0.24623 2,-0.24264 2,-0.23916 2.00001,-0.23579 2,-0.23252 2,-0.22937 2,-0.2263 2,-0.22333 2,-0.22042 2,-0.21762 2,-0.2149 2,-0.21224 2,-0.20967 2,-0.20713 2,-0.20468 2,-0.20231 2.00001,-0.2 2,-0.19773 2,-0.19553 2,-0.19338 2,-0.19129 2,-0.18924 2,-0.18724 2,-0.18528 2,-0.18337 2,-0.18151 2,-0.17969 2,-0.17791 2.00001,-0.17615 2,-0.17445 2,-0.17278 2,-0.17115 2,-0.16955 2,-0.16797 2,-0.16644 2,-0.16494 2,-0.16346 2,-0.16201 2,-0.16059 2,-0.1592 2,-0.15784 2.00001,-0.15649 2,-0.15517 2,-0.15389 2,-0.15261 2,-0.15137 2,-0.15016 2,-0.14897 2,-0.14777 2,-0.14662 2,-0.14548 2,-0.14436 2,-0.14326 2.00001,-0.14217 2,-0.14111 2,-0.14006 2,-0.13903 2,-0.13802 2,-0.13702"
           id="path214"
           style="stroke:#4d4d4d;stroke-width:1.20000005" />
      </g>
      <g
         clip-path="url(#clip14)"
         id="g216" />
      <g
         clip-path="url(#clip15)"
         id="g218">
        <path
           d="m 299.9998,-300 2,-19.45378 2,-8.3948 2,-4.67717 2,-3.6532 2,-3.02609 2,-2.59741 2.00001,-2.28325 2,-2.19576 2,-1.95401 2,-1.87256 2,-1.68902 2,-1.62096 2,-1.54842 2,-1.53535 2,-1.4498 2,-1.37122 2,-1.33998 2,-1.33739 2.00001,-1.31869 2,-1.28942 2,-1.25365 2,-1.23675 2,-1.21116 2,-1.19809 2,-1.19245 2,-1.17615 2,-1.16563 2,-1.15823 2,-1.15212 2,-1.13658 2,-1.13162 2.00001,-1.11747 2,-1.11079 2,-1.10218 2,-1.10307 2,-1.09393 2,-1.08689 2,-1.08487 2,-1.07785 2,-1.07378 2,-1.06794 2,-1.06314 2,-1.05846 2.00001,-1.05323 2,-1.04709 2,-1.04557 2,-1.03954 2,-1.03465 2,-1.03006 2,-1.02379 2,-1.02072 2,-1.01492 2,-1.00974 2,-1.00457 2,-0.99974 2,-0.99395 2.00001,-0.98846 2,-0.98216 2,-0.97605 2,-0.97027 2,-0.96384 2,-0.95711 2,-0.94985 2,-0.94229 2,-0.93465 2,-0.92637 2,-0.91774 2,-0.90868 2.00001,-0.89915 2,-0.88916 2,-0.87833 2,-0.86701 2,-0.85495 2,-0.842 2,-0.82813 2,-0.81336 2,-0.79746 2,-0.78013 2,-0.76153 2,-0.74129 2,-0.71921 2.00001,-0.69503 2,-0.66849 2,-0.63903 2,-0.60637 2,-0.56981 2,-0.52874 2,-0.48213 2,-0.42868 2,-0.36699 2,-0.29488 2,-0.20944 2,-0.10261 2.00001,0.0177 2,0.14227 2,0.27193 2,0.41154 2,0.56745 2,0.74828 2,0.96719 2,1.24498 2,1.61871 2,2.16142 2,3.04235 2,4.76593 2,9.96334 2.00001,105.73693 2,0 2,0 2,0 2,0 2,0 2,0 2,0 2,0 2,0 2,0 2,0 2.00001,0 2,0 2,0 2,0 2,0 2,0 2,0 2,0 2,0 2,0 2,0 2,0 2,0 2.00001,0 2,0 2,0 2,0 2,0 2,0 2,0 2,0 2,0 2,0 2,0 2,0 2.00001,0 2,0 2,0 2,0 2,0 2,0 2,0 2,0 2,0 2,0 2,0 2,0 2,0 2.00001,0 2,0 2,0 2,0 2,0 2,0 2,0 2,0 2,0 2,0 2,0 2,0 2.00001,0 2,0 2,0 2,0 2,0 2,0 2,0 2,0 2,0 2,0 2,0 2,0 2,0 2.00001,0 2,0 2,0 2,0 2,0 2,0 2,0 2,0 2,0 2,0 2,0 2,0 2.00001,0 2,0 2,0 2,0 2,0 2,0"
           id="path220"
           style="stroke-width:1.20000005;stroke-dasharray:1.5, 1.5" />
      </g>
      <g
         clip-path="url(#clip16)"
         id="g222" />
      <g
         clip-path="url(#clip17)"
         id="g224">
        <path
           d="m 299.9998,-300 2,0 2,0 2,0 2,0 2,0 2,0 2.00001,0 2,0 2,0 2,0 2,0 2,0 2,0 2,0 2,0 2,0 2,0 2,0 2.00001,0 2,0 2,0 2,0 2,0 2,0 2,0 2,0 2,0 2,0 2,0 2,0 2,0 2.00001,0 2,0 2,0 2,-7.52575 2,-4.40228 2,-3.12347 2,-4.40228 2,-3.12347 2,-3.45757 2,-2.61838 2,-2.72861 2,-2.66139 2.00001,-2.13575 2,-2.42275 2,-2.23501 2,-2.06337 2,-2.08343 2,-2.03683 2,-1.95569 2,-1.85956 2,-1.84466 2,-1.79417 2,-1.78608 2,-1.69108 2,-1.68858 2.00001,-1.6545 2,-1.66819 2,-1.64543 2,-1.62509 2,-1.60389 2,-1.59841 2,-1.56698 2,-1.5746 2,-1.55279 2,-1.53329 2,-1.54007 2,-1.52708 2.00001,-1.5141 2,-1.50491 2,-1.5007 2,-1.49225 2,-1.48294 2,-1.47776 2,-1.47252 2,-1.46487 2,-1.45815 2,-1.45373 2,-1.44832 2,-1.44464 2,-1.43831 2.00001,-1.43412 2,-1.42998 2,-1.42545 2,-1.42165 2,-1.41749 2,-1.41339 2,-1.40985 2,-1.40592 2,-1.40253 2,-1.39917 2,-1.39595 2,-1.34439 2.00001,-1.2123 2,-1.10528 2,-1.01639 2,-0.94155 2,-0.87762 2,-0.82223 2,-0.77419 2,-0.73187 2,-0.69402 2,-0.66045 2,-0.63013 2,-0.60261 2,-0.5778 2.00001,-0.55514 2,-0.53418 2,-0.51507 2,-0.49724 2,-0.48082 2,-0.46562 2,-0.45139 2,-0.43808 2,-0.42571 2,-0.41394 2,-0.40295 2,-0.39266 2.00001,-0.38286 2,-0.37361 2,-0.36485 2,-0.35652 2,-0.34862 2,-0.3411 2,-0.33399 2,-0.32714 2,-0.32062 2,-0.31437 2,-0.30839 2,-0.30266 2,-0.29721 2.00001,-0.29193 2,-0.28687 2,-0.28198 2,-0.27726 2,-0.27277 2,-0.26844 2,-0.26421 2,-0.26017 2,-0.25626 2,-0.25242 2,-0.24879 2,-0.24526 2.00001,-0.2418 2,-0.23849 2,-0.23522 2,-0.23209 2,-0.22907 2,-0.22611 2,-0.22324 2,-0.22047 2,-0.21773 2,-0.21509 2,-0.21254 2,-0.21003 2,-0.2076 2.00001,-0.20521 2,-0.2029 2,-0.20063 2,-0.19843 2,-0.1963 2,-0.19419 2,-0.19215 2,-0.19014 2,-0.18817 2,-0.18627 2,-0.18441 2,-0.18256 2.00001,-0.18078 2,-0.17904 2,-0.1773 2,-0.17563 2,-0.17401 2,-0.17238 2,-0.17081 2,-0.16927 2,-0.16773 2,-0.16626 2,-0.1648 2,-0.16336 2,-0.16198 2.00001,-0.16058 2,-0.15923 2,-0.15792 2,-0.15661 2,-0.15533 2,-0.15409 2,-0.15284 2,-0.15162 2,-0.15042 2,-0.14927 2,-0.14811 2,-0.14697 2.00001,-0.14586 2,-0.14476 2,-0.14368 2,-0.14263 2,-0.14159 2,-0.14055"
           id="path226"
           style="stroke:#ff0000;stroke-width:1.20000005;stroke-dasharray:1.5, 1.5" />
      </g>
      <g
         clip-path="url(#clip18)"
         id="g228" />
    </g>
    <g
       clip-path="url(#clip19)"
       id="g230"
       style="fill:#ffffff">
      <path
         d="m 845,-297 0,-84 85.528,0 0,84 z"
         id="path232"
         style="stroke:none" />
    </g>
    <g
       id="g234">
      <path
         d="m 845,-297 0,-84 85.528,0 0,84 z"
         id="path236" />
      <path
         d="m 850,-375 9,0"
         id="path238"
         style="stroke-width:1.20000005" />
      <text
         x="859"
         y="-372"
         id="text240"
         style="fill:#000000;stroke:none">steel</text>
      <path
         d="m 850,-366 9,0"
         id="path242"
         style="stroke:#ff0000;stroke-width:1.20000005" />
      <text
         x="859"
         y="-363"
         id="text244"
         style="fill:#000000;stroke:none">quatloos</text>
      <path
         d="m 850,-357 9,0"
         id="path246"
         style="stroke:#00008a;stroke-width:1.20000005" />
      <text
         x="859"
         y="-354"
         id="text248"
         style="fill:#000000;stroke:none">people</text>
      <path
         d="m 850,-348 9,0"
         id="path250"
         style="stroke:#b3b3b3;stroke-width:1.20000005" />
      <text
         x="859"
         y="-345"
         id="text252"
         style="fill:#000000;stroke:none">food</text>
      <path
         d="m 850,-339 9,0"
         id="path254"
         style="stroke:#8ebc8e;stroke-width:1.20000005" />
      <text
         x="859"
         y="-336"
         id="text256"
         style="fill:#000000;stroke:none">unobtanium</text>
      <path
         d="m 850,-330 9,0"
         id="path258"
         style="stroke:#bcb66b;stroke-width:1.20000005" />
      <text
         x="859"
         y="-327"
         id="text260"
         style="fill:#000000;stroke:none">krellmetal</text>
      <path
         d="m 850,-321 9,0"
         id="path262"
         style="stroke:#4d4d4d;stroke-width:1.20000005" />
      <text
         x="859"
         y="-318"
         id="text264"
         style="fill:#000000;stroke:none">antimatter</text>
      <path
         d="m 850,-312 9,0"
         id="path266"
         style="stroke-width:1.20000005;stroke-dasharray:1.5, 1.5" />
      <text
         x="859"
         y="-309"
         id="text268"
         style="fill:#000000;stroke:none">hydrocarbon</text>
      <path
         d="m 850,-303 9,0"
         id="path270"
         style="stroke:#ff0000;stroke-width:1.20000005;stroke-dasharray:1.5, 1.5" />
      <text
         x="859"
         y="-300"
         id="text272"
         style="fill:#000000;stroke:none">consumergoods</text>
    </g>
  </g>
</svg>
